<svg width="44" height="44" viewBox="0 0 44 44" fill="none" xmlns="http://www.w3.org/2000/svg">
<path d="M34.0001 21.9999C34.0001 22.2652 33.8947 22.5195 33.7072 22.7071C33.5196 22.8946 33.2653 22.9999 33.0001 22.9999H13.4138L20.7076 30.2924C20.8005 30.3854 20.8742 30.4957 20.9244 30.6171C20.9747 30.7384 21.0006 30.8686 21.0006 30.9999C21.0006 31.1313 20.9747 31.2614 20.9244 31.3828C20.8742 31.5042 20.8005 31.6145 20.7076 31.7074C20.6146 31.8004 20.5043 31.8741 20.383 31.9243C20.2616 31.9746 20.1314 32.0005 20.0001 32.0005C19.8687 32.0005 19.7386 31.9746 19.6172 31.9243C19.4958 31.8741 19.3855 31.8004 19.2926 31.7074L10.2926 22.7074C10.1996 22.6146 10.1258 22.5043 10.0755 22.3829C10.0252 22.2615 9.99927 22.1314 9.99927 21.9999C9.99927 21.8685 10.0252 21.7384 10.0755 21.617C10.1258 21.4956 10.1996 21.3853 10.2926 21.2924L19.2926 12.2924C19.4802 12.1048 19.7347 11.9994 20.0001 11.9994C20.2654 11.9994 20.5199 12.1048 20.7076 12.2924C20.8952 12.4801 21.0006 12.7346 21.0006 12.9999C21.0006 13.2653 20.8952 13.5198 20.7076 13.7074L13.4138 20.9999H33.0001C33.2653 20.9999 33.5196 21.1053 33.7072 21.2928C33.8947 21.4804 34.0001 21.7347 34.0001 21.9999Z" fill="#475467"/>
</svg>
