<svg width="20" height="20" viewBox="0 0 20 20" fill="none" xmlns="http://www.w3.org/2000/svg">
<path d="M18.314 12.6562C18.3755 12.7631 18.4154 12.8811 18.4314 13.0034C18.4474 13.1258 18.4391 13.25 18.407 13.3692C18.3749 13.4883 18.3197 13.5999 18.2445 13.6977C18.1693 13.7955 18.0756 13.8775 17.9687 13.939C17.8618 14.0006 17.7438 14.0405 17.6215 14.0565C17.4991 14.0724 17.3749 14.0641 17.2558 14.0321C17.1366 14 17.025 13.9448 16.9272 13.8696C16.8294 13.7944 16.7474 13.7006 16.6859 13.5937L15.3687 11.2891C14.6337 11.7514 13.8413 12.1155 13.0116 12.3719L13.4249 14.8437C13.4656 15.089 13.4072 15.3403 13.2626 15.5424C13.118 15.7446 12.899 15.8811 12.6538 15.9219C12.6022 15.9309 12.55 15.9354 12.4976 15.9351C12.2762 15.9349 12.062 15.8564 11.893 15.7134C11.724 15.5704 11.611 15.3722 11.5741 15.1539L11.1718 12.7476C10.3914 12.8341 9.60379 12.8341 8.82336 12.7476L8.42492 15.1562C8.38798 15.3748 8.2748 15.5732 8.10546 15.7162C7.93612 15.8592 7.72158 15.9376 7.49992 15.9375C7.44755 15.9377 7.39526 15.9333 7.34367 15.9242C7.22224 15.9038 7.10603 15.8596 7.00168 15.7942C6.89732 15.7288 6.80686 15.6436 6.73548 15.5432C6.66409 15.4429 6.61316 15.3295 6.58562 15.2095C6.55807 15.0894 6.55444 14.9652 6.57492 14.8437L6.98821 12.3656C6.15859 12.1092 5.36616 11.7452 4.63117 11.2828L3.31399 13.5937C3.18967 13.8096 2.98467 13.9673 2.7441 14.0321C2.50352 14.0968 2.24708 14.0634 2.03117 13.939C1.81527 13.8147 1.6576 13.6097 1.59284 13.3692C1.52808 13.1286 1.56154 12.8721 1.68586 12.6562L3.12492 10.1445C2.63718 9.70405 2.18499 9.22574 1.77258 8.71405C1.62699 8.51987 1.56237 8.27679 1.59233 8.03594C1.62229 7.7951 1.74448 7.57526 1.93321 7.42266C2.12193 7.27006 2.36248 7.19659 2.60426 7.21772C2.84604 7.23884 3.07021 7.35291 3.22961 7.53593C4.48274 9.08749 6.67492 10.9375 9.99992 10.9375C13.3249 10.9375 15.5171 9.08749 16.7702 7.53593C16.9271 7.34435 17.1533 7.22258 17.3996 7.1972C17.6458 7.17182 17.8922 7.24489 18.0848 7.40045C18.2773 7.55602 18.4006 7.78145 18.4276 8.02755C18.4546 8.27365 18.3831 8.52044 18.2288 8.71405C17.8159 9.2258 17.3632 9.70411 16.8749 10.1445L18.314 12.6562Z" fill="#475467"/>
</svg>
