<svg width="26" height="26" viewBox="0 0 26 26" fill="none" xmlns="http://www.w3.org/2000/svg">
<path d="M23.3929 14.3264C23.0905 14.0938 22.7386 13.934 22.3645 13.8595C21.9904 13.785 21.6041 13.7978 21.2357 13.8968L16.9863 14.8738C17.0852 14.4562 17.0882 14.0216 16.9953 13.6026C16.9023 13.1836 16.7157 12.7911 16.4494 12.4545C16.1832 12.1179 15.8442 11.846 15.4579 11.659C15.0715 11.472 14.6479 11.375 14.2188 11.375H9.13453C8.70756 11.3739 8.28461 11.4575 7.89012 11.6208C7.49563 11.7842 7.13741 12.0241 6.83617 12.3266L4.53883 14.625H1.625C1.19402 14.625 0.780698 14.7962 0.475951 15.101C0.171205 15.4057 0 15.819 0 16.25L0 20.3125C0 20.7435 0.171205 21.1568 0.475951 21.4615C0.780698 21.7663 1.19402 21.9375 1.625 21.9375H12.1875C12.2539 21.9375 12.3201 21.9293 12.3845 21.9131L18.8845 20.2881C18.926 20.2783 18.9664 20.2647 19.0054 20.2475L22.9531 18.5677L22.9978 18.5473C23.3772 18.3578 23.7021 18.0747 23.9419 17.7249C24.1817 17.375 24.3284 16.9699 24.3684 16.5476C24.4083 16.1254 24.3401 15.6999 24.1701 15.3113C24.0002 14.9227 23.7341 14.5838 23.397 14.3264H23.3929ZM1.625 16.25H4.0625V20.3125H1.625V16.25ZM22.2859 17.0838L18.4265 18.7271L12.0859 20.3125H5.6875V15.7737L7.98586 13.4763C8.13621 13.3248 8.31518 13.2046 8.51238 13.1229C8.70957 13.0411 8.92105 12.9993 9.13453 13H14.2188C14.542 13 14.852 13.1284 15.0805 13.357C15.3091 13.5855 15.4375 13.8955 15.4375 14.2188C15.4375 14.542 15.3091 14.852 15.0805 15.0805C14.852 15.3091 14.542 15.4375 14.2188 15.4375H11.375C11.1595 15.4375 10.9528 15.5231 10.8005 15.6755C10.6481 15.8279 10.5625 16.0345 10.5625 16.25C10.5625 16.4655 10.6481 16.6722 10.8005 16.8245C10.9528 16.9769 11.1595 17.0625 11.375 17.0625H14.625C14.6862 17.0623 14.7471 17.0555 14.8068 17.0422L21.6115 15.4771L21.643 15.469C21.8507 15.4113 22.0724 15.4325 22.2654 15.5285C22.4585 15.6245 22.6092 15.7884 22.6886 15.9889C22.768 16.1893 22.7705 16.412 22.6956 16.6141C22.6207 16.8163 22.4737 16.9836 22.2828 17.0838H22.2859ZM16.6562 9.75C16.857 9.75023 17.0574 9.73392 17.2555 9.70125C17.4782 10.363 17.8858 10.9471 18.4301 11.3845C18.9743 11.8219 19.6324 12.0943 20.3265 12.1696C21.0207 12.2449 21.7219 12.1198 22.3472 11.8092C22.9725 11.4985 23.4958 11.0154 23.8552 10.4168C24.2146 9.81816 24.3952 9.12915 24.3754 8.43121C24.3556 7.73327 24.1365 7.05558 23.7438 6.47826C23.3511 5.90094 22.8013 5.44814 22.1594 5.17339C21.5175 4.89863 20.8103 4.81342 20.1216 4.92781C19.9071 4.29025 19.5208 3.72422 19.0053 3.29202C18.4899 2.85983 17.8652 2.57821 17.2 2.47816C16.5348 2.37812 15.8549 2.46353 15.2351 2.72499C14.6153 2.98645 14.0796 3.41383 13.6871 3.96009C13.2945 4.50635 13.0603 5.15032 13.0101 5.82113C12.96 6.49194 13.0958 7.16359 13.4028 7.76215C13.7098 8.36072 14.1759 8.863 14.7499 9.21372C15.3239 9.56444 15.9836 9.75001 16.6562 9.75ZM22.75 8.53125C22.75 8.93299 22.6309 9.32572 22.4077 9.65975C22.1845 9.99379 21.8672 10.2541 21.4961 10.4079C21.1249 10.5616 20.7165 10.6018 20.3225 10.5235C19.9284 10.4451 19.5665 10.2516 19.2824 9.96756C18.9984 9.68349 18.8049 9.32155 18.7265 8.92753C18.6482 8.5335 18.6884 8.12509 18.8421 7.75393C18.9959 7.38276 19.2562 7.06553 19.5902 6.84233C19.9243 6.61913 20.317 6.5 20.7188 6.5C21.2575 6.5 21.7741 6.71401 22.1551 7.09494C22.536 7.47587 22.75 7.99253 22.75 8.53125ZM16.6562 4.0625C17.0994 4.06272 17.5303 4.20784 17.8832 4.47574C18.2362 4.74363 18.4919 5.1196 18.6113 5.54633C18.1952 5.83913 17.8448 6.21556 17.5824 6.65155C17.3201 7.08753 17.1517 7.57347 17.0879 8.07828C16.946 8.10891 16.8014 8.12457 16.6562 8.125C16.1175 8.125 15.6009 7.911 15.2199 7.53006C14.839 7.14913 14.625 6.63247 14.625 6.09375C14.625 5.55503 14.839 5.03837 15.2199 4.65744C15.6009 4.27651 16.1175 4.0625 16.6562 4.0625Z" fill="#343330"/>
</svg>
