<svg width="196" height="79" viewBox="0 0 196 79" fill="none" xmlns="http://www.w3.org/2000/svg">
<path d="M179.908 64.4255L179.942 63.2573C179.989 61.6024 180.348 60.2489 181.019 59.197C181.722 58.146 182.82 57.2852 184.312 56.6148L185.139 56.2495C186.599 55.6105 187.724 54.913 188.514 54.1569C189.304 53.4007 189.718 52.3737 189.755 51.0757C189.782 50.1346 189.565 49.3325 189.104 48.6694C188.675 47.9747 188.05 47.4366 187.229 47.0551C186.407 46.6736 185.436 46.4663 184.316 46.4333C183.164 46.3992 182.118 46.5632 181.179 46.9253C180.272 47.2882 179.535 47.8511 178.969 48.6138C178.435 49.3775 178.151 50.3434 178.117 51.5116L178.086 52.5825L171.846 52.3983L171.874 51.4248C171.938 49.1857 172.538 47.271 173.672 45.6806C174.807 44.0903 176.314 42.9006 178.195 42.1117C180.076 41.2903 182.168 40.9137 184.472 40.9817C186.744 41.0487 188.748 41.5301 190.484 42.4257C192.252 43.3223 193.626 44.5321 194.608 46.055C195.589 47.5779 196.051 49.3129 195.995 51.2599C195.94 53.2069 195.542 54.8027 194.801 56.0475C194.062 57.2598 193.137 58.2393 192.027 58.986C190.949 59.7012 189.843 60.3181 188.707 60.8366L187.88 61.202C187.296 61.4446 186.887 61.7572 186.652 62.14C186.417 62.4904 186.29 63.0225 186.269 63.7364L186.244 64.6125L179.908 64.4255Z" fill="#475467"/>
<path d="M182.927 76.4013C181.647 76.3635 180.572 75.9096 179.7 75.0394C178.861 74.1378 178.461 73.0055 178.5 71.6426C178.539 70.2797 179.003 69.1892 179.891 68.371C180.812 67.5213 181.913 67.1153 183.193 67.1531C184.505 67.1918 185.58 67.662 186.419 68.5637C187.259 69.4329 187.659 70.5489 187.62 71.9118C187.581 73.2747 187.117 74.3815 186.228 75.2321C185.34 76.0503 184.24 76.4401 182.927 76.4013Z" fill="#475467"/>
<path d="M174.955 52.9083C176.678 52.9545 178.08 52.797 178.086 52.5566C178.092 52.3162 176.701 52.0838 174.977 52.0376C173.254 51.9915 171.852 52.1489 171.846 52.3893C171.84 52.6297 173.231 52.8621 174.955 52.9083Z" fill="#475467"/>
<path d="M183.064 64.9584C184.814 65.0053 186.237 64.8484 186.244 64.608C186.25 64.3676 184.837 64.1347 183.087 64.0878C181.338 64.0409 179.914 64.1977 179.908 64.4382C179.902 64.6786 181.315 64.9115 183.064 64.9584Z" fill="#475467"/>
<path d="M24.4964 50.1352L24.4966 46.4571L28.0477 46.4574L28.0489 26.994L24.4978 26.9938L24.498 23.3157L37.9091 23.3165C39.4957 23.3166 40.8809 23.5977 42.0646 24.1597C43.2482 24.6962 44.1674 25.4753 44.8222 26.497C45.5021 27.4932 45.842 28.6809 45.8419 30.0602L45.8419 30.4434C45.8418 31.6694 45.6151 32.6783 45.1617 33.4701C44.7084 34.2619 44.1543 34.8749 43.4994 35.3091C42.8698 35.7432 42.2653 36.0497 41.686 36.2285L41.686 36.8415C42.2652 36.9948 42.8823 37.3013 43.537 37.7611C44.217 38.1954 44.7836 38.8085 45.2369 39.6003C45.7154 40.3921 45.9546 41.4266 45.9545 42.7038L45.9545 43.0869C45.9544 44.5684 45.6143 45.8327 44.9342 46.8799C44.2542 47.9271 43.3097 48.7316 42.1008 49.2935C40.917 49.8553 39.5444 50.1362 37.983 50.1361L24.4964 50.1352ZM32.1654 46.381L37.4921 46.3813C38.8521 46.3814 39.9225 46.0494 40.7032 45.3854C41.484 44.7213 41.8744 43.8018 41.8745 42.6269L41.8745 42.282C41.8746 41.1071 41.4843 40.1875 40.7036 39.5234C39.9481 38.8592 38.8778 38.5271 37.4926 38.527L32.1659 38.5267L32.1654 46.381ZM32.1662 34.7336L37.4928 34.734C38.7772 34.7341 39.8099 34.4148 40.5906 33.7763C41.3714 33.1123 41.7618 32.2183 41.7619 31.0944L41.7619 30.7113C41.762 29.5874 41.3717 28.7062 40.591 28.0676C39.8355 27.4034 38.8029 27.0713 37.4933 27.0712L32.1666 27.0709L32.1662 34.7336Z" fill="#475467"/>
<path d="M59.3683 50.6739C57.5046 50.6737 55.8424 50.2905 54.3817 49.5241C52.9462 48.7322 51.813 47.6083 50.982 46.1523C50.1509 44.6963 49.7355 42.9722 49.7356 40.9799L49.7356 40.4052C49.7358 38.4129 50.1514 36.7015 50.9826 35.2712C51.8138 33.8154 52.9472 32.6916 54.3828 31.8998C55.8436 31.1081 57.5058 30.7123 59.3695 30.7124C61.2332 30.7125 62.8954 31.1086 64.3561 31.9005C65.8168 32.6924 66.9626 33.8163 67.7937 35.2723C68.6247 36.7027 69.0401 38.4141 69.04 40.4064L69.04 40.9811C69.0399 42.9734 68.6242 44.6975 67.793 46.1534C66.9618 47.6092 65.8158 48.733 64.355 49.5248C62.8942 50.2909 61.232 50.674 59.3683 50.6739ZM59.3685 47.149C61.0811 47.1491 62.4663 46.6 63.5242 45.5018C64.6072 44.378 65.1488 42.8327 65.1489 40.8659L65.1489 40.5211C65.149 38.5543 64.6202 37.0217 63.5625 35.9234C62.5048 34.7994 61.1071 34.2374 59.3693 34.2373C57.6819 34.2372 56.2967 34.799 55.2137 35.9228C54.1558 37.0211 53.6269 38.5536 53.6267 40.5204L53.6267 40.8652C53.6266 42.832 54.1554 44.3773 55.2131 45.5012C56.296 46.5996 57.6811 47.1489 59.3685 47.149Z" fill="#475467"/>
<path d="M73.8838 50.1384L73.885 31.2497L77.7005 31.25L77.7004 33.4722L78.3048 33.4722C78.6071 32.6804 79.0856 32.1057 79.7405 31.7482C80.4205 31.3651 81.2516 31.1736 82.2338 31.1736L84.4627 31.1738L84.4625 34.737L82.0825 34.7368C80.8232 34.7367 79.7906 35.0943 78.9847 35.8094C78.1787 36.499 77.7757 37.5717 77.7756 39.0277L77.7749 50.1386L73.8838 50.1384Z" fill="#475467"/>
<path d="M93.7566 50.676C92.4218 50.676 91.2255 50.446 90.1677 49.9862C89.1352 49.5263 88.3041 48.8494 87.6745 47.9554C87.0701 47.0614 86.768 45.9758 86.7681 44.6987C86.7682 43.396 87.0704 42.3232 87.6749 41.4804C88.3046 40.612 89.1484 39.9607 90.2062 39.5265C91.2891 39.0924 92.5106 38.8753 93.8706 38.8754L99.5373 38.8758L99.5373 37.6498C99.5374 36.5514 99.2101 35.6702 98.5553 35.006C97.9005 34.3419 96.8931 34.0098 95.5331 34.0097C94.1983 34.0096 93.1783 34.3288 92.4731 34.9673C91.7679 35.6059 91.3019 36.436 91.0752 37.4576L87.4486 36.2697C87.7509 35.248 88.2294 34.3285 88.8843 33.5112C89.5644 32.6683 90.4585 31.9915 91.5666 31.4807C92.6748 30.97 94.0096 30.7146 95.5711 30.7147C97.9889 30.7149 99.8903 31.3408 101.275 32.5925C102.661 33.8441 103.353 35.6194 103.353 37.9182L103.352 45.6959C103.352 46.4621 103.705 46.8453 104.41 46.8453L105.997 46.8454L105.997 50.1404L103.088 50.1402C102.206 50.1402 101.488 49.9103 100.934 49.4505C100.38 48.9907 100.103 48.3648 100.103 47.573L100.103 47.4581L99.5367 47.4581C99.3352 47.8412 99.033 48.2882 98.63 48.799C98.227 49.3098 97.6351 49.7568 96.8544 50.1398C96.0736 50.4974 95.041 50.6761 93.7566 50.676ZM94.3234 47.4194C95.8849 47.4195 97.1442 46.9726 98.1013 46.0787C99.0584 45.1592 99.537 43.9077 99.5371 42.324L99.5371 41.9409L94.0971 41.9405C93.0645 41.9405 92.2334 42.1703 91.6037 42.63C90.9741 43.0642 90.6592 43.7155 90.6592 44.584C90.6591 45.4524 90.9865 46.1421 91.6413 46.653C92.296 47.1639 93.1901 47.4193 94.3234 47.4194Z" fill="#475467"/>
<path d="M53.8204 74.0827L53.8216 55.1941L57.6371 55.1944L57.637 57.4165L58.2414 57.4166C58.5437 56.6248 59.0222 56.0501 59.6771 55.6926C60.3571 55.3095 61.1882 55.118 62.1704 55.118L64.3993 55.1182L64.3991 58.6813L62.0191 58.6812C60.7598 58.6811 59.7272 59.0386 58.9213 59.7538C58.1153 60.4434 57.7123 61.5161 57.7122 62.972L57.7115 74.083L53.8204 74.0827Z" fill="#475467"/>
<path d="M73.6932 74.6204C72.3584 74.6203 71.1621 74.3904 70.1044 73.9305C69.0718 73.4707 68.2407 72.7938 67.6112 71.8997C67.0068 71.0057 66.7046 69.9201 66.7047 68.643C66.7048 67.3404 67.0071 66.2676 67.6115 65.4247C68.2412 64.5563 69.085 63.9051 70.1428 63.4709C71.2258 63.0368 72.4472 62.8197 73.8072 62.8198L79.4739 62.8202L79.474 61.5941C79.474 60.4958 79.1467 59.6146 78.4919 58.9504C77.8371 58.2863 76.8297 57.9542 75.4697 57.9541C74.1349 57.954 73.1149 58.2732 72.4097 58.9117C71.7045 59.5502 71.2385 60.3803 71.0118 61.402L67.3852 60.2141C67.6875 59.1924 68.1661 58.2729 68.8209 57.4556C69.501 56.6127 70.3951 55.9359 71.5033 55.4251C72.6114 54.9144 73.9462 54.659 75.5077 54.6591C77.9255 54.6593 79.8269 55.2852 81.212 56.5368C82.5971 57.7885 83.2896 59.5638 83.2895 61.8626L83.289 69.6402C83.289 70.4065 83.6415 70.7897 84.3467 70.7897L85.9334 70.7898L85.9332 74.0848L83.0243 74.0846C82.1428 74.0846 81.4251 73.8546 80.871 73.3948C80.317 72.935 80.04 72.3092 80.04 71.5174L80.04 71.4025L79.4734 71.4024C79.2719 71.7856 78.9696 72.2325 78.5666 72.7433C78.1636 73.2542 77.5717 73.7011 76.791 74.0842C76.0102 74.4418 74.9776 74.6205 73.6932 74.6204ZM74.26 71.3638C75.8215 71.3639 77.0808 70.917 78.0379 70.023C78.995 69.1036 79.4736 67.852 79.4737 66.2684L79.4737 65.8853L74.0337 65.8849C73.0011 65.8848 72.17 66.1147 71.5403 66.5744C70.9107 67.0086 70.5958 67.6599 70.5958 68.5283C70.5957 69.3968 70.9231 70.0864 71.5779 70.5973C72.2327 71.1082 73.1267 71.3637 74.26 71.3638Z" fill="#475467"/>
<path d="M97.9249 74.622C96.1367 74.6218 94.5123 74.2386 93.0516 73.4722C91.6161 72.7059 90.4703 71.5947 89.6141 70.1387C88.7831 68.6828 88.3676 66.9331 88.3677 64.8897L88.3678 64.3916C88.3679 62.3482 88.7835 60.6114 89.6147 59.181C90.4711 57.7252 91.6171 56.6141 93.0527 55.848C94.5135 55.0562 96.1379 54.6604 97.9261 54.6606C99.7142 54.6607 101.238 54.9928 102.497 55.657C103.756 56.3212 104.764 57.2025 105.519 58.3008C106.3 59.3992 106.803 60.6125 107.03 61.9407L103.252 62.7451C103.126 61.9022 102.862 61.1359 102.459 60.4462C102.056 59.7565 101.489 59.2073 100.759 58.7986C100.029 58.3899 99.1096 58.1855 98.0014 58.1854C96.9185 58.1853 95.9362 58.4407 95.0547 58.9515C94.1984 59.4368 93.5184 60.1519 93.0146 61.0969C92.5108 62.0164 92.2589 63.1403 92.2588 64.4685L92.2588 64.8133C92.2587 66.1415 92.5105 67.2782 93.0142 68.2233C93.5178 69.1684 94.1978 69.8836 95.054 70.369C95.9355 70.8543 96.9177 71.097 98.0006 71.0971C99.6377 71.0972 100.884 70.6758 101.741 69.833C102.597 68.9646 103.139 67.8663 103.365 66.5381L107.143 67.4196C106.841 68.7222 106.299 69.9227 105.518 71.021C104.763 72.1192 103.755 73.0004 102.496 73.6644C101.237 74.3029 99.713 74.6221 97.9249 74.622Z" fill="#475467"/>
<path d="M111.631 74.0865L111.632 47.2669L115.523 47.2672L115.523 57.88L116.127 57.8801C116.379 57.3948 116.732 56.9223 117.185 56.4625C117.663 56.0028 118.28 55.6325 119.036 55.3516C119.817 55.0451 120.799 54.8919 121.983 54.892C123.393 54.8921 124.64 55.2114 125.723 55.8501C126.831 56.4887 127.7 57.3955 128.329 58.5705C128.959 59.72 129.273 61.112 129.273 62.7468L129.273 74.0876L125.382 74.0873L125.382 63.053C125.382 61.4183 124.979 60.2178 124.174 59.4515C123.368 58.6596 122.26 58.2636 120.849 58.2635C119.237 58.2634 117.94 58.7997 116.958 59.8724C116.001 60.9452 115.522 62.5032 115.522 64.5466L115.522 74.0867L111.631 74.0865Z" fill="#475467"/>
<path d="M140.653 74.6247C139.318 74.6246 138.121 74.3947 137.064 73.9348C136.031 73.475 135.2 72.7981 134.571 71.9041C133.966 71.01 133.664 69.9245 133.664 68.6473C133.664 67.3447 133.966 66.2719 134.571 65.429C135.201 64.5606 136.044 63.9094 137.102 63.4752C138.185 63.0411 139.407 62.824 140.767 62.8241L146.433 62.8245L146.433 61.5985C146.433 60.5001 146.106 59.6189 145.451 58.9547C144.796 58.2906 143.789 57.9585 142.429 57.9584C141.094 57.9583 140.074 58.2775 139.369 58.916C138.664 59.5546 138.198 60.3847 137.971 61.4063L134.345 60.2184C134.647 59.1967 135.125 58.2772 135.78 57.4599C136.46 56.617 137.354 55.9402 138.463 55.4294C139.571 54.9187 140.906 54.6633 142.467 54.6634C144.885 54.6636 146.786 55.2895 148.171 56.5412C149.556 57.7928 150.249 59.5681 150.249 61.8669L150.248 69.6446C150.248 70.4108 150.601 70.794 151.306 70.794L152.893 70.7941L152.893 74.0891L149.984 74.0889C149.102 74.0889 148.384 73.8589 147.83 73.3991C147.276 72.9393 146.999 72.3135 146.999 71.5217L146.999 71.4068L146.433 71.4067C146.231 71.7899 145.929 72.2368 145.526 72.7477C145.123 73.2585 144.531 73.7054 143.75 74.0885C142.97 74.4461 141.937 74.6248 140.653 74.6247ZM141.219 71.3681C142.781 71.3682 144.04 70.9213 144.997 70.0274C145.954 69.1079 146.433 67.8563 146.433 66.2727L146.433 65.8896L140.993 65.8892C139.96 65.8892 139.129 66.119 138.5 66.5787C137.87 67.0129 137.555 67.6642 137.555 68.5326C137.555 69.4011 137.882 70.0908 138.537 70.6016C139.192 71.1125 140.086 71.368 141.219 71.3681Z" fill="#475467"/>
<path d="M156.676 74.0894L156.677 55.2007L160.493 55.201L160.492 57.4232L161.097 57.4232C161.399 56.6314 161.878 56.0567 162.533 55.6992C163.213 55.3161 164.044 55.1246 165.026 55.1246L167.255 55.1248L167.255 58.688L164.875 58.6878C163.615 58.6877 162.583 59.0452 161.777 59.7604C160.971 60.45 160.568 61.5227 160.568 62.9787L160.567 74.0896L156.676 74.0894Z" fill="#475467"/>
<path d="M78.8116 62.2449L78.8115 66.4354" stroke="#475467" stroke-width="0.585492" stroke-linecap="round"/>
<ellipse cx="0.447967" cy="1.83813" rx="0.447967" ry="1.83813" transform="matrix(-1 -6.38261e-05 6.12535e-05 -1 24.9452 26.9917)" fill="#475467"/>
<ellipse cx="0.447967" cy="1.83414" rx="0.447967" ry="1.83414" transform="matrix(-1 -6.3826e-05 6.12536e-05 -1 24.943 50.1313)" fill="#475467"/>
<ellipse cx="0.447969" cy="1.78051" rx="0.447969" ry="1.78051" transform="matrix(-1 -6.38258e-05 6.12538e-05 -1 84.9241 34.7361)" fill="#475467"/>
<ellipse cx="0.447965" cy="1.78051" rx="0.447965" ry="1.78051" transform="matrix(-1 -6.38262e-05 6.12534e-05 -1 64.8272 58.6816)" fill="#475467"/>
<ellipse cx="0.44797" cy="1.64612" rx="0.44797" ry="1.64612" transform="matrix(-1 -6.38256e-05 6.1254e-05 -1 86.3858 74.0969)" fill="#475467"/>
<ellipse cx="0.453683" cy="1.91198" rx="0.453683" ry="1.91198" transform="matrix(0.314501 -0.949257 0.946546 0.322568 67.2436 60.6316)" fill="#475467"/>
<ellipse cx="0.447969" cy="1.52872" rx="0.447969" ry="1.52872" transform="matrix(1 6.39144e-05 -6.134e-05 1 77.6948 62.8386)" fill="#475467"/>
<ellipse cx="0.454323" cy="1.90922" rx="0.454323" ry="1.90922" transform="matrix(6.12968e-05 -1 1 6.38703e-05 53.8196 55.667)" fill="#475467"/>
<path d="M145.775 62.2341L145.775 66.4247" stroke="#475467" stroke-width="0.585492" stroke-linecap="round"/>
<ellipse cx="0.447966" cy="1.64612" rx="0.447966" ry="1.64612" transform="matrix(-1 -6.38261e-05 6.12535e-05 -1 153.349 74.0854)" fill="#475467"/>
<ellipse cx="0.453682" cy="1.91198" rx="0.453682" ry="1.91198" transform="matrix(0.314501 -0.949257 0.946546 0.322568 134.207 60.6226)" fill="#475467"/>
<ellipse cx="0.447965" cy="1.52872" rx="0.447965" ry="1.52872" transform="matrix(1 6.3915e-05 -6.13395e-05 1 144.658 62.8271)" fill="#475467"/>
<ellipse cx="0.454323" cy="1.90922" rx="0.454323" ry="1.90922" transform="matrix(6.12969e-05 -1 1 6.38701e-05 156.667 55.6763)" fill="#475467"/>
<ellipse cx="0.447973" cy="1.78051" rx="0.447973" ry="1.78051" transform="matrix(-1 -6.38252e-05 6.12544e-05 -1 167.71 58.6885)" fill="#475467"/>
<ellipse cx="0.454323" cy="1.90922" rx="0.454323" ry="1.90922" transform="matrix(6.12968e-05 -1 1 6.38703e-05 111.631 47.7217)" fill="#475467"/>
<path d="M116.546 58.2596C116.546 57.3772 116.788 56.8376 116.994 56.6618C117.2 56.4861 116.994 58.2596 116.994 58.2596C116.994 58.2596 117.053 59.8582 116.994 59.8574C116.935 59.8566 116.546 59.142 116.546 58.2596Z" fill="#475467"/>
<ellipse cx="0.381284" cy="1.92995" rx="0.381284" ry="1.92995" transform="matrix(-0.200269 -0.979741 -0.978603 0.205756 107.101 62.3037)" fill="#475467"/>
<ellipse cx="0.381201" cy="1.94617" rx="0.381201" ry="1.94617" transform="matrix(-0.23542 0.971894 -0.970335 -0.241763 107.231 67.0793)" fill="#475467"/>
<path d="M33.3368 33.2769L33.3371 41.0492" stroke="#475467" stroke-width="1.03627" stroke-linecap="round"/>
<path d="M98.8772 38.2908L98.8771 42.4813" stroke="#475467" stroke-width="0.585492" stroke-linecap="round"/>
<ellipse cx="0.447966" cy="1.64612" rx="0.447966" ry="1.64612" transform="matrix(-1 -6.38261e-05 6.12535e-05 -1 106.451 50.1421)" fill="#475467"/>
<ellipse cx="0.453683" cy="1.91198" rx="0.453683" ry="1.91198" transform="matrix(0.314501 -0.949257 0.946546 0.322568 87.3092 36.6772)" fill="#475467"/>
<ellipse cx="0.447969" cy="1.52872" rx="0.447969" ry="1.52872" transform="matrix(1 6.39144e-05 -6.134e-05 1 97.7607 38.8843)" fill="#475467"/>
<ellipse cx="0.454323" cy="1.90922" rx="0.454323" ry="1.90922" transform="matrix(6.12968e-05 -1 1 6.38703e-05 73.881 31.7239)" fill="#475467"/>
<path d="M0.733761 22.4334C0.80614 22.0421 1.29024 21.8202 1.7675 21.9597L15.2901 25.9112C15.6925 26.0288 15.9492 26.3654 15.8882 26.6954L15.5962 28.2743C15.5313 28.6252 15.1308 28.8472 14.6897 28.7766L0.845783 26.5627C0.381174 26.4884 0.0520063 26.1196 0.120378 25.7499L0.733761 22.4334Z" fill="#475467"/>
<path d="M8.77321 5.06776C9.05082 4.78621 9.57387 4.88032 9.89013 5.26873L18.851 16.2736C19.1177 16.6011 19.1422 17.026 18.9082 17.2634L17.7881 18.3993C17.5392 18.6517 17.0851 18.6056 16.7603 18.2948L6.56679 8.54001C6.22469 8.21264 6.15834 7.71973 6.42058 7.45377L8.77321 5.06776Z" fill="#475467"/>
<path d="M28.1339 0.1718C28.5131 0.0687472 28.9197 0.415494 29.0021 0.912237L31.337 14.9868C31.4065 15.4056 31.2183 15.786 30.8985 15.8729L29.3686 16.2887C29.0285 16.3811 28.658 16.1108 28.5299 15.677L24.5112 2.06C24.3764 1.603 24.5619 1.14249 24.9201 1.04514L28.1339 0.1718Z" fill="#475467"/>
</svg>
