<svg width="26" height="26" viewBox="0 0 26 26" fill="none" xmlns="http://www.w3.org/2000/svg">
<path d="M24.8056 6.09394C24.6887 6.02093 24.555 5.9789 24.4173 5.97179C24.2796 5.96469 24.1424 5.99274 24.0185 6.05331C19.6584 8.18612 16.5445 7.18675 13.2529 6.13253C9.79977 5.02651 6.21969 3.88394 1.27359 6.29909C1.1354 6.36538 1.01877 6.46941 0.937181 6.59916C0.855592 6.72892 0.812368 6.8791 0.8125 7.03237V19.2128C0.812481 19.3506 0.847538 19.4862 0.914372 19.6068C0.981206 19.7274 1.07762 19.8289 1.19454 19.902C1.31146 19.975 1.44504 20.0171 1.58271 20.0243C1.72037 20.0315 1.85761 20.0035 1.98148 19.943C6.34156 17.8102 9.45547 18.8096 12.7522 19.8638C14.7062 20.4884 16.6969 21.1252 18.9475 21.1252C20.6832 21.1252 22.5763 20.7474 24.7274 19.6972C24.864 19.6305 24.9792 19.5268 25.0598 19.3979C25.1404 19.269 25.1833 19.12 25.1834 18.968V6.78761C25.1847 6.64939 25.1506 6.51315 25.0845 6.39177C25.0184 6.27039 24.9224 6.16788 24.8056 6.09394ZM23.5625 18.451C19.4391 20.2964 16.4277 19.3336 13.2478 18.317C11.2937 17.6924 9.30313 17.0556 7.0525 17.0556C5.47128 17.0633 3.90614 17.3735 2.44156 17.9696V7.54933C6.565 5.70394 9.57633 6.66675 12.7562 7.68339C15.9362 8.70003 19.2095 9.75019 23.5625 8.03276V18.451ZM13 9.75019C12.3572 9.75019 11.7289 9.9408 11.1944 10.2979C10.6599 10.655 10.2434 11.1626 9.99739 11.7565C9.75141 12.3503 9.68705 13.0038 9.81245 13.6342C9.93785 14.2647 10.2474 14.8438 10.7019 15.2983C11.1564 15.7528 11.7355 16.0623 12.366 16.1877C12.9964 16.3131 13.6499 16.2488 14.2437 16.0028C14.8376 15.7568 15.3452 15.3402 15.7023 14.8058C16.0594 14.2713 16.25 13.643 16.25 13.0002C16.25 12.1382 15.9076 11.3116 15.2981 10.7021C14.6886 10.0926 13.862 9.75019 13 9.75019ZM13 14.6252C12.6786 14.6252 12.3644 14.5299 12.0972 14.3513C11.83 14.1728 11.6217 13.919 11.4987 13.622C11.3757 13.3251 11.3435 12.9984 11.4062 12.6832C11.4689 12.3679 11.6237 12.0784 11.851 11.8511C12.0782 11.6239 12.3678 11.4691 12.683 11.4064C12.9982 11.3437 13.3249 11.3759 13.6219 11.4989C13.9188 11.6219 14.1726 11.8302 14.3511 12.0974C14.5297 12.3646 14.625 12.6788 14.625 13.0002C14.625 13.4312 14.4538 13.8445 14.149 14.1492C13.8443 14.454 13.431 14.6252 13 14.6252ZM5.6875 9.75019V14.6252C5.6875 14.8407 5.6019 15.0473 5.44952 15.1997C5.29715 15.3521 5.09049 15.4377 4.875 15.4377C4.65951 15.4377 4.45285 15.3521 4.30048 15.1997C4.1481 15.0473 4.0625 14.8407 4.0625 14.6252V9.75019C4.0625 9.5347 4.1481 9.32804 4.30048 9.17566C4.45285 9.02329 4.65951 8.93769 4.875 8.93769C5.09049 8.93769 5.29715 9.02329 5.44952 9.17566C5.6019 9.32804 5.6875 9.5347 5.6875 9.75019ZM20.3125 16.2502V11.3752C20.3125 11.1597 20.3981 10.953 20.5505 10.8007C20.7028 10.6483 20.9095 10.5627 21.125 10.5627C21.3405 10.5627 21.5471 10.6483 21.6995 10.8007C21.8519 10.953 21.9375 11.1597 21.9375 11.3752V16.2502C21.9375 16.4657 21.8519 16.6723 21.6995 16.8247C21.5471 16.9771 21.3405 17.0627 21.125 17.0627C20.9095 17.0627 20.7028 16.9771 20.5505 16.8247C20.3981 16.6723 20.3125 16.4657 20.3125 16.2502Z" fill="#343330"/>
</svg>
