<svg width="25" height="24" viewBox="0 0 25 24" fill="none" xmlns="http://www.w3.org/2000/svg">
<path d="M13.25 4C13.25 3.44772 12.8023 3 12.25 3C11.6977 3 11.25 3.44772 11.25 4H13.25ZM11.25 5C11.25 5.55228 11.6977 6 12.25 6C12.8023 6 13.25 5.55228 13.25 5H11.25ZM18.25 15C17.6977 15 17.25 15.4477 17.25 16C17.25 16.5523 17.6977 17 18.25 17V15ZM20.25 17C20.8023 17 21.25 16.5523 21.25 16C21.25 15.4477 20.8023 15 20.25 15V17ZM12.25 16V15C11.6977 15 11.25 15.4477 11.25 16H12.25ZM14.25 17C14.8023 17 15.25 16.5523 15.25 16C15.25 15.4477 14.8023 15 14.25 15V17ZM11.25 20C11.25 20.5523 11.6977 21 12.25 21C12.8023 21 13.25 20.5523 13.25 20H11.25ZM13.25 9C13.25 8.44772 12.8023 8 12.25 8C11.6977 8 11.25 8.44772 11.25 9H13.25ZM12.25 12H11.25C11.25 12.5523 11.6977 13 12.25 13V12ZM16.25 19C15.6977 19 15.25 19.4477 15.25 20C15.25 20.5523 15.6977 21 16.25 21V19ZM20.25 21C20.8023 21 21.25 20.5523 21.25 20C21.25 19.4477 20.8023 19 20.25 19V21ZM4.25 11C3.69772 11 3.25 11.4477 3.25 12C3.25 12.5523 3.69772 13 4.25 13V11ZM8.25 13C8.80228 13 9.25 12.5523 9.25 12C9.25 11.4477 8.80228 11 8.25 11V13ZM12.26 13C12.8123 13 13.26 12.5523 13.26 12C13.26 11.4477 12.8123 11 12.26 11V13ZM16.26 13C16.8123 13 17.26 12.5523 17.26 12C17.26 11.4477 16.8123 11 16.26 11V13ZM20.25 11C19.6977 11 19.25 11.4477 19.25 12C19.25 12.5523 19.6977 13 20.25 13V11ZM20.26 13C20.8123 13 21.26 12.5523 21.26 12C21.26 11.4477 20.8123 11 20.26 11V13ZM5.25 5H7.25V3H5.25V5ZM7.25 5V7H9.25V5H7.25ZM7.25 7H5.25V9H7.25V7ZM5.25 7V5H3.25V7H5.25ZM5.25 7H3.25C3.25 8.10457 4.14543 9 5.25 9V7ZM7.25 7V9C8.35457 9 9.25 8.10457 9.25 7H7.25ZM7.25 5H9.25C9.25 3.89543 8.35457 3 7.25 3V5ZM5.25 3C4.14543 3 3.25 3.89543 3.25 5H5.25V3ZM17.25 5H19.25V3H17.25V5ZM19.25 5V7H21.25V5H19.25ZM19.25 7H17.25V9H19.25V7ZM17.25 7V5H15.25V7H17.25ZM17.25 7H15.25C15.25 8.10457 16.1454 9 17.25 9V7ZM19.25 7V9C20.3546 9 21.25 8.10457 21.25 7H19.25ZM19.25 5H21.25C21.25 3.89543 20.3546 3 19.25 3V5ZM17.25 3C16.1454 3 15.25 3.89543 15.25 5H17.25V3ZM5.25 17H7.25V15H5.25V17ZM7.25 17V19H9.25V17H7.25ZM7.25 19H5.25V21H7.25V19ZM5.25 19V17H3.25V19H5.25ZM5.25 19H3.25C3.25 20.1046 4.14543 21 5.25 21V19ZM7.25 19V21C8.35457 21 9.25 20.1046 9.25 19H7.25ZM7.25 17H9.25C9.25 15.8954 8.35457 15 7.25 15V17ZM5.25 15C4.14543 15 3.25 15.8954 3.25 17H5.25V15ZM11.25 4V5H13.25V4H11.25ZM18.25 17H20.25V15H18.25V17ZM12.25 17H14.25V15H12.25V17ZM11.25 16V20H13.25V16H11.25ZM11.25 9V12H13.25V9H11.25ZM16.25 21H20.25V19H16.25V21ZM4.25 13H8.25V11H4.25V13ZM12.25 13H12.26V11H12.25V13ZM20.25 13H20.26V11H20.25V13ZM12.25 13H16.26V11H12.25V13Z" fill="#545F71"/>
</svg>
