<svg width="296" height="296" viewBox="0 0 296 296" fill="none" xmlns="http://www.w3.org/2000/svg">
<path d="M149.735 286.167C227.131 286.167 289.873 252.368 289.873 210.675C289.873 168.982 227.131 135.183 149.735 135.183C72.3383 135.183 9.59632 168.982 9.59632 210.675C9.59632 252.368 72.3383 286.167 149.735 286.167Z" fill="#F0F0F0"/>
<path d="M149.291 239.31C171.111 239.31 188.801 229.098 188.801 216.5C188.801 203.903 171.111 193.69 149.291 193.69C127.47 193.69 109.78 203.903 109.78 216.5C109.78 229.098 127.47 239.31 149.291 239.31Z" fill="#E0E0E0"/>
<path d="M71.4485 251.428C95.4141 251.428 114.842 240.211 114.842 226.375C114.842 212.538 95.4141 201.321 71.4485 201.321C47.4829 201.321 28.0549 212.538 28.0549 226.375C28.0549 240.211 47.4829 251.428 71.4485 251.428Z" fill="#E0E0E0"/>
<path d="M222.586 253.707C246.552 253.707 265.98 242.491 265.98 228.654C265.98 214.817 246.552 203.601 222.586 203.601C198.62 203.601 179.192 214.817 179.192 228.654C179.192 242.491 198.62 253.707 222.586 253.707Z" fill="#E0E0E0"/>
<path d="M245.301 200.132C245.301 200.132 243.827 186.018 247.711 175.576C251.594 165.133 258.414 157.662 265.814 155.448C273.214 153.234 281.052 160.835 274.031 167.341C267.01 173.847 253.749 181.803 251.008 201.026L245.301 200.132Z" fill="#BA68C8"/>
<path opacity="0.15" d="M245.301 200.132C245.301 200.132 243.827 186.018 247.711 175.576C251.594 165.133 258.414 157.662 265.814 155.448C273.214 153.234 281.052 160.835 274.031 167.341C267.01 173.847 253.749 181.803 251.008 201.026L245.301 200.132Z" fill="black"/>
<path d="M246.793 196.982H246.704C246.591 196.966 246.489 196.906 246.421 196.815C246.352 196.724 246.322 196.61 246.337 196.497C249.392 174.178 262.878 161.746 269.579 158.295C269.68 158.243 269.798 158.234 269.906 158.269C269.96 158.286 270.01 158.314 270.052 158.35C270.095 158.387 270.131 158.431 270.156 158.482C270.182 158.532 270.197 158.586 270.202 158.643C270.206 158.699 270.2 158.755 270.183 158.809C270.165 158.862 270.138 158.912 270.101 158.955C270.065 158.998 270.02 159.033 269.97 159.059C263.404 162.439 250.197 174.646 247.19 196.615C247.176 196.713 247.129 196.803 247.057 196.87C246.985 196.937 246.891 196.976 246.793 196.982Z" fill="white"/>
<path d="M249.001 210.403C249.18 208.649 249.048 206.877 248.61 205.17C248.184 203.34 247.083 201.618 246.994 199.699C246.923 198.172 247.876 196.443 248.96 195.413C250.043 194.383 251.553 193.602 252.304 192.258C253.056 190.914 252.896 189.186 253.269 187.652C253.674 185.948 254.725 184.468 256.201 183.526C257.678 182.583 259.463 182.252 261.179 182.603C262.777 182.934 264.186 183.822 265.648 184.544C267.088 185.348 268.747 185.671 270.384 185.468C272.179 185.123 273.998 184.925 275.825 184.876C278.933 184.876 282.84 185.935 283.905 189.221C284.21 190.026 284.239 190.908 283.988 191.731L283.953 191.832C283.053 194.058 280.217 194.514 278.394 195.603C277.897 195.905 277.062 196.325 276.872 196.929C276.683 197.533 277.204 198.362 277.464 198.918C278.128 200.357 279.087 201.742 279.175 203.37C279.294 205.696 277.352 207.934 275.392 208.923C273.466 209.796 271.35 210.165 269.242 209.994C268.2 209.947 267.063 209.858 266.205 210.456C265.854 210.748 265.568 211.109 265.365 211.516C265.161 211.924 265.044 212.369 265.021 212.824C264.908 213.724 264.991 214.642 264.908 215.547C264.726 216.974 264.163 218.325 263.28 219.46C262.397 220.595 261.226 221.472 259.888 222C257.65 222.85 255.173 222.82 252.956 221.917C251.132 221.201 249.569 219.011 249.214 217.104C248.843 214.89 248.772 212.636 249.001 210.403Z" fill="#BA68C8"/>
<path d="M249.753 215.719H249.723C249.679 215.712 249.636 215.697 249.597 215.674C249.558 215.651 249.524 215.62 249.497 215.584C249.47 215.547 249.451 215.506 249.44 215.462C249.429 215.418 249.427 215.373 249.433 215.328C252.441 193.862 273.984 188.185 279.152 187.93C279.242 187.927 279.331 187.959 279.398 188.02C279.466 188.081 279.507 188.165 279.513 188.256C279.516 188.301 279.51 188.347 279.495 188.39C279.481 188.433 279.457 188.472 279.427 188.506C279.396 188.54 279.36 188.567 279.318 188.586C279.277 188.605 279.233 188.616 279.187 188.617C274.126 188.866 253.056 194.419 250.114 215.423C250.104 215.509 250.06 215.588 249.993 215.643C249.926 215.699 249.84 215.726 249.753 215.719Z" fill="white"/>
<path d="M272.811 202.216C272.74 202.213 272.672 202.188 272.616 202.145C272.557 202.097 266.299 197.267 257.194 199.777C257.151 199.789 257.106 199.793 257.061 199.788C257.017 199.783 256.974 199.769 256.934 199.747C256.895 199.725 256.861 199.695 256.833 199.66C256.806 199.624 256.786 199.583 256.774 199.54C256.75 199.451 256.763 199.357 256.808 199.277C256.853 199.197 256.928 199.139 257.017 199.114C259.709 198.327 262.541 198.144 265.312 198.577C268.083 199.01 270.724 200.048 273.048 201.618C273.119 201.676 273.164 201.759 273.174 201.85C273.184 201.94 273.158 202.031 273.101 202.103C273.066 202.144 273.021 202.175 272.97 202.195C272.92 202.215 272.865 202.222 272.811 202.216Z" fill="white"/>
<path d="M47.6856 193.614C48.6387 188.209 48.4789 178.885 44.477 169.004C40.1968 158.431 33.6078 150.8 26.9715 151.836C20.7851 152.801 20.8917 161.024 28.487 171.088C33.815 178.145 38.9714 186.865 40.5402 196.183L43.8376 208.384L47.6856 193.614Z" fill="#BA68C8"/>
<path d="M47.6856 193.614C48.6387 188.209 48.4789 178.885 44.477 169.004C40.1968 158.431 33.6078 150.8 26.9715 151.836C20.7851 152.801 20.8917 161.024 28.487 171.088C33.815 178.145 38.9714 186.865 40.5402 196.183L43.8376 208.384L47.6856 193.614Z" fill="#BA68C8"/>
<g opacity="0.15">
<path d="M47.6856 193.614C48.6387 188.209 48.4789 178.885 44.477 169.004C40.1968 158.431 33.6078 150.8 26.9715 151.836C20.7851 152.801 20.8917 161.024 28.487 171.088C33.815 178.145 38.9714 186.865 40.5402 196.183L43.8376 208.384L47.6856 193.614Z" fill="black"/>
</g>
<path d="M46.0931 197.509C46.0162 197.489 45.9472 197.446 45.8954 197.386C45.8435 197.325 45.8113 197.251 45.803 197.172C44.2994 181.105 37.0651 163.392 29.008 155.897C28.9691 155.863 28.9375 155.821 28.9148 155.774C28.8921 155.727 28.8789 155.676 28.8759 155.624C28.8728 155.572 28.8801 155.52 28.8972 155.471C28.9142 155.422 28.9408 155.377 28.9754 155.338C29.01 155.299 29.052 155.267 29.0988 155.245C29.1456 155.222 29.1965 155.209 29.2484 155.206C29.3004 155.203 29.3524 155.21 29.4016 155.227C29.4507 155.244 29.496 155.271 29.5349 155.305C37.7459 162.883 45.0808 180.838 46.6022 197.071C46.6122 197.174 46.581 197.276 46.5155 197.356C46.4501 197.436 46.3557 197.487 46.253 197.497C46.2006 197.509 46.1467 197.513 46.0931 197.509Z" fill="white"/>
<path d="M45.1282 211.196C41.7375 213.404 37.8255 214.68 33.7854 214.896C26.7998 215.382 24.053 211.824 24.053 211.824C24.053 211.824 27.3326 205.602 31.3997 204.128C31.3997 204.128 24.6509 204.891 19.015 207.976C19.015 207.976 14.8059 207.674 13.687 201.103C13.687 201.103 16.5227 197.462 25.0653 196.106C25.0653 196.106 20.0925 194.383 12.5978 195.609C12.0058 195.775 10.4133 187.268 10.0403 183.378C9.66736 179.489 11.2243 179.66 14.2613 179.128C17.2982 178.595 27.528 178.986 29.2507 180.791C30.9734 182.597 31.4293 188.298 31.4293 188.298C31.4293 188.298 33.6434 184.497 33.2053 181.046C35.9317 180.98 38.637 181.539 41.1144 182.68C41.8544 183.023 42.251 188.742 40.0666 193.099C42.3535 190.824 44.0065 187.992 44.8618 184.882C48.9347 187.931 49.8938 191.554 50.1898 194.798C50.5213 198.622 49.9411 206.608 45.1282 211.196Z" fill="#BA68C8"/>
<path d="M45.0926 211.581C45.02 211.576 44.9505 211.549 44.8926 211.505C44.8348 211.461 44.7911 211.401 44.767 211.332C40.2205 199.297 20.7378 184.059 13.4621 181.969C13.4127 181.955 13.3665 181.931 13.3264 181.899C13.2862 181.866 13.2528 181.827 13.228 181.782C13.2033 181.736 13.1877 181.687 13.1821 181.636C13.1766 181.585 13.1812 181.533 13.1957 181.483C13.2259 181.386 13.2926 181.304 13.382 181.254C13.4713 181.204 13.5763 181.191 13.6752 181.217C21.0693 183.348 40.8776 198.829 45.4952 211.06C45.5297 211.156 45.5248 211.263 45.4816 211.356C45.4384 211.449 45.3604 211.521 45.2643 211.557C45.2101 211.58 45.151 211.588 45.0926 211.581Z" fill="white"/>
<path d="M114.682 90.576L90.2978 79.7543L89.7058 66.4343C94.4418 66.1501 95.9395 67.1802 98.0707 68.5004C101.191 70.4244 111.924 75.9477 116.979 78.3216L122.728 62.3376C124.383 62.124 126.009 61.7269 127.576 61.1536C129.281 60.384 131.181 61.3904 131.181 61.3904C131.181 61.3904 126.096 86.0176 124.178 90.576C123.083 93.1631 118.885 92.4112 114.682 90.576Z" fill="#FFA8A7"/>
<path d="M89.7117 66.4045C89.7117 66.4045 92.873 65.4395 97.1472 67.5885C101.421 69.7375 111.13 75.0063 111.13 75.0063C111.13 75.0063 108.17 83.0989 104.695 87.4087L92.429 82.1754L89.7117 66.4045Z" fill="#455A64"/>
<path d="M127.913 171.544C128.061 164.404 129.459 159.491 129.624 157.514C129.624 157.514 129.097 115.061 129.097 108.176L165.292 106.702C165.292 106.702 164.108 151.25 164.108 157.146C164.108 163.043 160.355 192.666 159.248 204.323C157.152 207.058 154.701 207.247 151.41 204.572C151.41 204.572 151.138 202.944 150.711 197.568C150.214 191.417 149.231 177.097 149.172 171.07C149.101 163.647 149.042 160.373 149.255 156.797C149.51 152.706 148.527 125.107 148.527 125.107C148.527 125.107 143.992 151.434 142.861 160.373C141.571 170.62 137.427 200.629 137.415 206.863C137.415 207.981 137.415 209.278 137.415 210.681C137.415 214.055 137.32 214.949 137.859 216.258C138.806 218.543 130.714 219.975 130.341 218.353L129.47 211.646V211.451V207.2C129.506 200.836 127.7 181.892 127.913 171.544Z" fill="#B16668"/>
<path d="M175.232 215.228C175.451 215.885 175.411 216.6 175.12 217.229C174.841 217.821 171.787 219.537 167.666 219.259C164.613 219.051 161.672 218.029 159.147 216.299C157.573 215.257 155.939 215.062 153.902 214.949C151.866 214.837 149.166 213.813 148.734 212.86C148.302 211.906 148.799 210.261 148.799 210.261L175.232 215.228Z" fill="#263238"/>
<path d="M158.62 202.375L158.946 202.304C159.124 202.256 159.309 202.246 159.491 202.274C159.691 202.336 159.868 202.455 160 202.618C160.403 203.133 160.756 203.686 161.054 204.269C161.918 205.678 163.729 206.845 165.707 207.91C167.056 208.632 168.377 209.195 169.762 209.822C171.147 210.45 173.059 210.846 174.172 211.598C175.788 212.688 175.996 215.429 174.172 216.512C172.586 217.441 168.4 218.454 164.02 217.21C161.652 216.536 158.976 213.984 155.844 213.735C153.849 213.582 150.078 213.019 148.793 211.504C148.32 210.835 148.953 208.703 149.474 206.868C150.066 204.861 150.469 201.712 151.132 201.89C151.153 202.25 151.192 202.61 151.25 202.967C151.321 203.275 151.653 203.559 151.842 203.796L152.612 204.684C152.922 205.095 153.31 205.441 153.754 205.702C154.542 206.105 155.483 205.933 156.347 205.749C156.389 205.749 155.992 204.175 155.951 204.021C155.909 203.899 155.898 203.769 155.921 203.642C155.973 203.519 156.064 203.416 156.181 203.352C156.917 202.858 157.748 202.526 158.62 202.375Z" fill="#455A64"/>
<path d="M145.744 226.902C145.987 227.132 145.916 228.678 145.644 229.122C145.372 229.566 143.702 230.986 140.707 231.205C137.841 231.407 135.284 231.022 133.603 229.956C131.921 228.891 131.11 227.713 130.95 226.079C130.791 224.445 130.95 222.876 130.199 221.621C129.482 220.437 128.334 219.158 128.085 218.525C127.546 217.163 128.085 215.204 128.085 215.204L145.744 226.902Z" fill="#263238"/>
<path d="M137.936 212.664C137.96 213.282 138.072 213.894 138.268 214.481C138.713 215.744 139.309 216.949 140.044 218.069C140.4 218.657 140.795 219.221 141.228 219.756C142.092 220.786 143.169 221.627 144.087 222.616C145.068 223.547 145.695 224.79 145.863 226.132C145.987 228.376 143.548 229.139 141.672 229.477C139.642 229.831 137.558 229.726 135.574 229.169C134.532 228.896 133.591 228.329 132.864 227.535C132.136 226.742 131.653 225.755 131.471 224.693C131.365 224.072 131.406 223.432 131.329 222.805C131.083 221.372 130.483 220.022 129.583 218.88C129.062 218.215 128.614 217.497 128.245 216.737C127.653 215.352 128.127 213.777 128.505 212.404C128.825 211.22 129.192 209.852 129.612 209.965C129.612 210.586 129.612 210.651 130.056 211.072C130.648 211.604 130.648 212.404 131.24 212.848C131.048 212.33 130.909 211.795 130.826 211.249C130.789 211.03 130.833 210.805 130.95 210.616C131.149 210.44 131.386 210.315 131.643 210.249C132.527 209.948 133.439 209.739 134.366 209.627C135.248 209.479 136.148 209.479 137.03 209.627C137.291 209.673 137.528 209.809 137.699 210.012C137.854 210.239 137.936 210.507 137.936 210.781C137.936 211.143 137.889 212.072 137.936 212.664Z" fill="#455A64"/>
<path d="M140.304 218.543C139.469 217.915 137.599 217.903 136.574 218.016C135.532 218.104 134.53 218.456 133.662 219.04C133.533 219.13 133.376 219.172 133.22 219.159C133.063 219.146 132.916 219.079 132.803 218.969C132.737 218.906 132.686 218.829 132.653 218.744C132.62 218.659 132.606 218.568 132.613 218.477C132.619 218.386 132.645 218.298 132.689 218.218C132.733 218.138 132.795 218.069 132.868 218.016C133.826 217.32 134.961 216.91 136.142 216.832C138.664 216.654 139.404 217.086 139.404 217.086C139.404 217.086 140.541 217.797 140.304 218.543Z" fill="#F5F5F5"/>
<path d="M142.216 220.816C141.168 220.194 139.102 220.283 138.072 220.396C137.05 220.498 136.074 220.87 135.242 221.473C135.115 221.566 134.959 221.611 134.801 221.599C134.644 221.587 134.496 221.519 134.384 221.408C134.319 221.345 134.269 221.268 134.236 221.183C134.204 221.098 134.19 221.007 134.197 220.916C134.203 220.826 134.228 220.738 134.272 220.658C134.316 220.578 134.376 220.509 134.449 220.455C135.421 219.716 136.579 219.263 137.794 219.147C140.316 218.969 140.973 219.484 140.973 219.484C141.268 219.597 141.533 219.775 141.749 220.006C141.964 220.237 142.124 220.514 142.216 220.816Z" fill="#F5F5F5"/>
<path d="M135.13 214.387C136.191 214.203 137.282 214.295 138.297 214.653C138.741 214.902 139.031 215.606 138.747 215.784C137.859 215.423 136.894 215.291 135.941 215.399C134.995 215.49 134.072 215.742 133.212 216.145C132.999 216.24 132.738 216.376 132.519 216.5C132.448 216.541 132.37 216.566 132.289 216.575C132.208 216.583 132.126 216.575 132.048 216.551C131.97 216.526 131.898 216.486 131.837 216.433C131.775 216.379 131.725 216.313 131.69 216.24C131.63 216.115 131.619 215.971 131.659 215.838C131.7 215.706 131.789 215.593 131.909 215.523C132.889 214.917 133.987 214.53 135.13 214.387Z" fill="#F5F5F5"/>
<path d="M163.848 206.827C163.704 206.552 163.494 206.317 163.237 206.145C162.979 205.972 162.683 205.867 162.374 205.838C161.468 205.673 159.864 206.342 158.869 207.159C158.774 207.235 158.7 207.334 158.652 207.446C158.604 207.559 158.585 207.681 158.595 207.803C158.606 207.924 158.646 208.041 158.712 208.144C158.779 208.246 158.869 208.331 158.976 208.39C159.11 208.465 159.264 208.496 159.417 208.479C159.57 208.462 159.713 208.398 159.828 208.295C160.925 207.3 162.368 206.773 163.848 206.827Z" fill="#F5F5F5"/>
<path d="M166.66 208.384C166.462 208.105 166.2 207.877 165.897 207.721C165.593 207.564 165.255 207.483 164.913 207.484C164.913 207.484 162.545 207.555 161.077 208.917C160.988 208.992 160.919 209.087 160.874 209.194C160.83 209.302 160.812 209.419 160.822 209.535C160.831 209.65 160.869 209.762 160.931 209.861C160.993 209.959 161.078 210.042 161.178 210.101C161.307 210.172 161.455 210.202 161.602 210.185C161.748 210.168 161.886 210.105 161.995 210.006C162.601 209.403 163.335 208.944 164.143 208.663C164.95 208.383 165.81 208.287 166.66 208.384Z" fill="#F5F5F5"/>
<path d="M169.762 209.822C169.537 209.563 169.259 209.356 168.946 209.215C168.633 209.074 168.294 209.002 167.95 209.005C166.604 209.087 165.319 209.595 164.28 210.456C164.191 210.531 164.121 210.626 164.077 210.734C164.032 210.841 164.014 210.958 164.024 211.074C164.034 211.19 164.072 211.302 164.134 211.4C164.196 211.499 164.28 211.581 164.381 211.64C164.51 211.712 164.658 211.741 164.804 211.724C164.951 211.707 165.088 211.645 165.198 211.545C165.771 210.921 166.482 210.441 167.275 210.142C168.068 209.842 168.919 209.733 169.762 209.822Z" fill="#F5F5F5"/>
<path d="M143.436 162.362L147.059 138.368L148.592 157.644C148.716 159.218 148.314 165.056 148.414 169.874C148.515 174.693 150.611 196.372 150.611 196.372C150.611 196.372 154.713 199.178 160.172 196.372C160.32 195.928 163.226 171.26 163.487 168.093C163.812 164.174 164.381 160.627 164.511 157.289C164.641 153.95 164.878 147.047 164.825 141.778C164.771 136.509 165.275 106.702 165.275 106.702L128.357 106.815L127.896 156.803C127.671 157.922 126.41 168.412 126.741 173.663C127.073 178.914 129.299 203.322 129.299 203.322C129.299 203.322 132.626 205.448 137.634 203.322C137.634 203.322 140.736 178.458 141.63 173.77C142.524 169.081 143.116 164.47 143.436 162.362Z" fill="#37474F"/>
<path d="M147.059 138.368L148.178 128.192C151.727 127.795 155.129 126.548 158.094 124.557C158.094 124.557 157.502 125.859 154.405 127.89C153.153 128.706 151.778 129.318 150.332 129.701L149.184 137.8L148.592 157.288L147.059 138.368Z" fill="#263238"/>
<path d="M156.584 54.748C161.367 54.748 163.516 55.6538 165.849 58.4954C168.181 61.337 179.269 76.2554 179.269 76.2554C179.269 76.2554 187.108 68.8021 191.109 65.0962C193.608 62.5269 196.059 60.0109 198.74 59.2413C201.54 58.4362 200.143 63.6458 201.256 64.072L197.947 68.8909C197.947 68.8909 185.734 85.1472 181.466 87.6692C179.986 88.5453 178.423 90.4279 174.297 87.0772C168.88 82.6668 159.053 71.5964 159.053 71.5964L156.584 54.748Z" fill="#B16668"/>
<path d="M154.642 54.7424C159.059 53.9965 161.859 53.7183 165.849 57.9155C169.839 62.1128 177.559 73.9587 177.559 73.9587C177.559 73.9587 177.103 80.0386 169.271 82.4184L157.164 73.9587L154.642 54.7424Z" fill="#455A64"/>
<path d="M127.913 111.888C132.88 115.505 155.4 119.513 165.849 111.888C165.849 111.888 165.606 82.6966 164.789 67.2454C164.748 66.5469 164.7 65.8661 164.629 65.203C164.629 64.984 164.576 64.765 164.552 64.5459C164.437 63.6236 164.261 62.71 164.025 61.8109C163.984 61.6629 163.937 61.5149 163.889 61.3669C163.794 61.0331 163.679 60.705 163.546 60.3842C163.481 60.2125 163.41 60.0408 163.333 59.875C163.264 59.7171 163.187 59.5629 163.102 59.4133C163.093 59.3846 163.081 59.3569 163.066 59.3304C162.989 59.1824 162.901 59.0344 162.818 58.8923C162.735 58.7502 162.628 58.5845 162.516 58.4246C162.403 58.2648 162.315 58.1346 162.214 58.0043C162.113 57.8741 161.971 57.7083 161.841 57.5662C161.72 57.4268 161.592 57.2944 161.456 57.1696L161.184 56.915C161.099 56.8318 161.008 56.7547 160.912 56.6842C160.793 56.5835 160.663 56.4888 160.539 56.4C160.13 56.1141 159.698 55.8627 159.248 55.6482C159.121 55.5819 158.991 55.5226 158.857 55.4706C158.828 55.4706 158.786 55.4706 158.768 55.4291L158.301 55.2515C158.033 55.1486 157.761 55.0597 157.484 54.9851C157.206 54.9082 156.892 54.8371 156.614 54.7661C156.335 54.695 155.903 54.7661 155.501 54.7661H154.672C154.382 54.7661 154.08 54.7661 153.784 54.7661C149.877 54.9378 145.75 54.1741 141.251 54.7187C140.955 54.7602 131.542 55.8139 129.37 56.6013C127.345 57.3413 125.522 60.9406 125.072 62.9357C123.728 68.8083 129.648 87.8766 129.648 87.8766L127.913 111.888Z" fill="#BA68C8"/>
<path d="M139.931 55.8195C139.718 56.5476 141.115 58.738 143.371 59.7504C145.626 60.7627 148.947 61.2304 151.067 60.5022C153.186 59.774 155.743 57.1337 153.512 54.7835C149.681 54.9078 145.638 54.1915 141.239 54.7302C141.222 54.7243 140.15 55.0913 139.931 55.8195Z" fill="#455A64"/>
<path opacity="0.3" d="M164.896 69.4888C161.107 70.8089 154.885 71.8568 147.059 72.3126C139.844 72.6708 132.612 72.274 125.48 71.1286C126.339 76.1133 127.848 81.7846 128.807 85.0821C142.488 87.8704 158.141 85.6741 165.369 83.383C165.239 78.3155 165.097 73.6209 164.896 69.4888Z" fill="black"/>
<path d="M141.02 34.2175L139.635 35.7331L138.925 27.9068C138.363 27.8414 137.794 27.9049 137.26 28.0927C136.727 28.2804 136.243 28.5874 135.846 28.9902C134.526 30.3399 135.254 34.5727 136.912 38.7167C136.912 38.7167 138.516 46.2588 139.161 47.4961C139.588 48.2621 140.294 48.8329 141.133 49.0886L141.02 34.2175Z" fill="#263238"/>
<path d="M140.843 39.0721C140.251 39.4332 139.369 38.267 138.623 37.4855C137.877 36.7041 135.432 35.6326 134.212 38.1959C132.993 40.7593 135.29 44.2698 137.214 44.8737C140.523 45.9156 141.02 43.7903 141.02 43.7903L141.245 55.9737C144.714 62.2489 156.454 59.0343 152.055 54.8726V51.7764C153.718 51.8977 155.388 51.8977 157.052 51.7764C159.491 51.4034 160.491 49.7162 161.231 47.0759C162.415 42.8431 162.865 39.4214 161.859 31.0919C160.758 21.9633 150.137 21.8686 144.401 25.4738C138.664 29.0791 140.843 39.0721 140.843 39.0721Z" fill="#B16668"/>
<path d="M139.422 22.9163C141.433 22.0569 143.534 21.4235 145.685 21.0278C150.321 20.0214 155.039 19.0979 159.266 16.9608C159.758 16.6399 160.335 16.4729 160.923 16.4813C162.042 16.6293 162.528 17.979 162.575 19.1038C162.617 20.1473 162.48 21.1903 162.172 22.1881C162.51 21.8664 162.961 21.6904 163.427 21.6982C163.893 21.7059 164.338 21.8968 164.665 22.2296C164.974 22.5796 165.2 22.9957 165.324 23.4461C165.448 23.8965 165.468 24.3693 165.381 24.8285C165.109 26.9005 163.522 28.6291 161.646 29.5645C159.72 30.4025 157.636 30.8183 155.536 30.784C152.614 30.8627 149.691 30.6345 146.816 30.1032C146.125 29.9315 145.411 29.8795 144.703 29.9493C144.349 29.9906 144.014 30.1301 143.736 30.3519C143.458 30.5737 143.247 30.869 143.128 31.2043C142.82 32.3587 142.5 40.1968 140.896 40.256C140.6 40.256 139.457 38.2846 138.712 37.5801C137.776 36.6981 136.835 29.9789 136.669 28.7357C136.648 28.6393 136.603 28.5498 136.539 28.4752C135.485 26.9952 136.722 24.5088 138.025 23.6977C138.475 23.4098 138.941 23.1489 139.422 22.9163Z" fill="#263238"/>
<path d="M137.113 28.552C136.925 28.7728 136.695 28.9544 136.437 29.0864C136.179 29.2184 135.897 29.2982 135.608 29.3213C135.318 29.3444 135.028 29.3103 134.752 29.221C134.476 29.1316 134.22 28.9888 133.999 28.8007C133.778 28.6126 133.597 28.3828 133.465 28.1245C133.333 27.8662 133.253 27.5844 133.23 27.2952C133.207 27.0061 133.241 26.7152 133.33 26.4392C133.42 26.1632 133.562 25.9076 133.751 25.6868L137.113 28.552Z" fill="#263238"/>
<path d="M152.043 51.7703C152.043 51.7703 146.603 51.2494 144.703 50.2371C143.587 49.6546 142.673 48.7488 142.08 47.6382C142.366 48.7504 142.873 49.7934 143.572 50.7047C144.963 52.4807 152.049 53.4457 152.049 53.4457L152.043 51.7703Z" fill="#9A4A4D"/>
<path d="M150.368 37.7045C150.359 37.9177 150.287 38.1234 150.162 38.2962C150.037 38.469 149.863 38.6012 149.664 38.6765C149.464 38.7517 149.247 38.7666 149.039 38.7194C148.831 38.6722 148.641 38.5649 148.493 38.4108C148.346 38.2568 148.247 38.0627 148.208 37.8528C148.17 37.6429 148.194 37.4264 148.278 37.2301C148.361 37.0338 148.501 36.8664 148.679 36.7487C148.857 36.6309 149.065 36.5681 149.279 36.5679C149.425 36.5709 149.569 36.6028 149.703 36.6616C149.837 36.7204 149.958 36.805 150.059 36.9105C150.16 37.0161 150.239 37.1405 150.292 37.2768C150.345 37.413 150.371 37.5583 150.368 37.7045Z" fill="#263238"/>
<path d="M149.225 33.5902L146.893 34.8749C146.726 34.5556 146.69 34.1841 146.791 33.8385C146.893 33.4929 147.125 33.2002 147.438 33.0219C147.592 32.9385 147.761 32.887 147.935 32.8705C148.11 32.854 148.285 32.8729 148.452 32.9259C148.619 32.979 148.774 33.0652 148.907 33.1793C149.039 33.2934 149.148 33.4332 149.225 33.5902Z" fill="#263238"/>
<path d="M150.871 45.2349L153.92 46.3715C153.852 46.5745 153.743 46.7616 153.601 46.9219C153.459 47.0822 153.287 47.2123 153.093 47.3045C152.9 47.3967 152.69 47.4492 152.476 47.4587C152.262 47.4683 152.049 47.4348 151.848 47.3601C151.445 47.1972 151.119 46.8865 150.938 46.4914C150.756 46.0964 150.732 45.6469 150.871 45.2349Z" fill="#9A4A4D"/>
<path d="M160 34.4958L157.875 32.8619C157.973 32.7165 158.099 32.5927 158.247 32.4981C158.394 32.4034 158.56 32.34 158.733 32.3117C158.906 32.2835 159.083 32.2909 159.253 32.3336C159.423 32.3763 159.582 32.4533 159.722 32.56C160.01 32.7839 160.199 33.1108 160.251 33.4718C160.303 33.8328 160.213 34.1999 160 34.4958Z" fill="#263238"/>
<path d="M159.343 37.3907C159.347 37.5368 159.321 37.6822 159.269 37.8184C159.216 37.9547 159.136 38.0791 159.035 38.1843C158.934 38.2895 158.812 38.3736 158.678 38.4314C158.544 38.4893 158.4 38.5199 158.253 38.5214C158.028 38.5297 157.806 38.4705 157.614 38.3513C157.423 38.2322 157.272 38.0586 157.18 37.8529C157.088 37.6471 157.059 37.4186 157.098 37.1966C157.137 36.9746 157.241 36.7693 157.398 36.607C157.554 36.4447 157.755 36.3328 157.976 36.2857C158.196 36.2386 158.426 36.2585 158.635 36.3427C158.844 36.4269 159.023 36.5717 159.149 36.7584C159.275 36.9452 159.343 37.1653 159.343 37.3907Z" fill="#263238"/>
<path d="M154.086 36.6152L154.447 43.1687L157.869 42.0024L154.086 36.6152Z" fill="#9A4A4D"/>
<path d="M134.573 55.5889C127.304 55.9322 125.155 57.0748 122.733 62.2903C120.957 66.1028 112.077 89.6525 110.449 93.8676C109.023 97.6268 108.833 99.5567 111.947 102.126C115.061 104.695 118.199 107.087 121.419 109.461C123.379 110.911 125.137 112.486 127.114 113.907C130.228 116.139 133.271 118.643 136.586 120.519C140.553 122.775 147.722 125.741 151.499 121.609C152.245 120.792 152.937 119.833 152.529 118.649C152.213 117.887 151.641 117.259 150.913 116.873C150.189 116.489 149.432 116.172 148.651 115.926C146.903 115.297 145.218 114.504 143.619 113.558C144.999 113.119 146.508 113.226 147.911 112.966C148.308 112.894 148.666 112.684 148.924 112.374C149.054 112.221 149.126 112.027 149.126 111.826C149.126 111.625 149.054 111.431 148.924 111.278C148.75 111.148 148.546 111.065 148.332 111.036C146.358 110.594 144.363 110.217 142.346 109.905C140.483 109.69 138.639 109.323 136.835 108.81C133.928 107.862 132.099 105.725 130.027 103.6C127.76 101.274 125.599 98.8641 123.515 96.3658L133.2 73.5797C133.2 73.5797 138.202 60.5084 134.573 55.5889Z" fill="#B16668"/>
<path d="M135.609 55.4351C132.821 55.589 128.505 55.9205 126.487 57.2111C124.148 58.7088 123.266 59.8632 120.946 65.5464C118.625 71.2296 114.061 83.1229 114.061 83.1229C115.626 85.1542 117.669 86.7669 120.009 87.8173C122.348 88.8677 124.911 89.3233 127.469 89.1435L135.165 71.3835C135.165 71.3835 138.747 61.9589 135.609 55.4351Z" fill="#455A64"/>
<path d="M146.698 119.584C145.78 115.825 149.208 112.61 151.99 110.704C156.282 107.744 160.089 105.968 164.511 103.316C168.536 100.889 180.862 92.3106 180.862 92.3106C180.862 92.3106 187.238 82.2762 191.601 74.598C197.012 65.0964 201.268 59.0225 210.326 60.1118L210.243 71.5729C210.243 71.5729 190.908 97.8458 189.718 99.2607C188.528 100.676 188.049 101.309 186.006 102.221C180.471 104.778 173.468 107.975 167.903 111.444C166.313 112.418 165.071 113.868 164.351 115.588C163.753 116.965 162.981 118.261 162.054 119.442C161.602 120.019 161.116 120.569 160.598 121.088C160.248 121.431 159.603 122.136 159.076 122.082C158.951 122.063 158.832 122.014 158.729 121.94C158.626 121.866 158.542 121.769 158.484 121.656C158.368 121.425 158.31 121.169 158.313 120.91C158.277 119.33 159.437 117.95 159.597 116.37C159.597 116.227 159.414 116.298 159.384 116.162C159.355 116.026 156.916 117.441 156.702 117.583C155.834 118.187 155 118.839 154.204 119.537C153.399 120.229 152.6 120.94 151.777 121.609C151.393 121.982 150.91 122.237 150.384 122.342C149.859 122.447 149.315 122.398 148.817 122.201C148.29 121.952 147.825 121.587 147.458 121.134C147.091 120.681 146.831 120.151 146.698 119.584Z" fill="#FFBDA7"/>
<path d="M211.486 60.0052C208.591 59.4132 201.499 59.4901 198.29 63.7999C194.904 68.3405 184.432 85.544 184.432 85.544C184.432 85.544 187.108 91.2864 194.94 93.24L208.384 74.9236L211.486 60.0052Z" fill="#455A64"/>
<path d="M236.007 238.274C236.244 239.204 236.735 241.826 241.625 241.826C246.515 241.826 249.321 239.819 250.274 237.339C251.227 234.858 250.682 233.011 250.594 230.827C250.505 228.642 252.115 227.275 252.47 226.091C252.997 224.368 251.559 221.994 251.559 221.994L236.007 238.274Z" fill="#263238"/>
<path d="M189.002 222.308C188.871 222.696 188.824 223.108 188.863 223.516C188.902 223.923 189.026 224.319 189.227 224.676C189.582 225.155 192.862 227.535 196.923 227.044C199.893 226.754 202.752 225.757 205.258 224.137C207.626 222.74 209.254 222.538 211.664 222.544C214.073 222.55 215.719 222.1 215.92 221.491C216.269 220.431 216.293 219.75 215.784 219.768L189.002 222.308Z" fill="#263238"/>
<path d="M245.911 181.744C245.283 176.598 243.555 171.647 240.843 167.228C240.843 167.228 238.475 132.3 236.463 113.948H200.303C200.303 113.948 201.381 161.539 201.961 168.519C202.405 173.847 206.057 207.247 206.063 207.313L206.59 212.883C209.426 214.31 211.652 214.097 214.067 212.362L214.582 207.431C214.582 207.431 217.542 186.255 217.726 181.205C217.93 176.893 217.453 172.576 216.311 168.412L220.698 144.691C220.698 144.691 224.202 161.456 226.185 170.845C228.453 181.602 241.577 216.826 241.577 216.838L242.412 219.768C242.229 222.965 249.919 220.786 249.836 218.27C249.824 218.276 247.361 192.678 245.911 181.744Z" fill="#FFBDA7"/>
<path d="M224.759 171.313C222.781 161.924 220.698 144.673 220.698 144.673L217.939 168.773C208.029 173.059 201.203 168.945 201.203 168.945C199.427 151.09 200.303 113.93 200.303 113.93H236.463C238.464 132.282 242.021 166.814 242.021 166.814C242.021 166.814 239.204 172.769 224.759 171.313Z" fill="#37474F"/>
<path d="M220.698 144.697L218.247 133.413C218.247 133.413 212.777 132.164 208.869 129.032C208.869 129.032 210.302 132.632 216.293 135.384L218.797 145.958L218.128 167.127L220.698 144.697Z" fill="#263238"/>
<path d="M242.424 219.774L242.128 218.803C241.808 219.123 241.856 219.395 241.844 220.265C241.844 220.952 241.844 221.615 241.755 222.527C241.64 223.717 241.422 224.896 241.104 226.049C240.47 228.725 239.76 229.802 237.877 233.112C237.428 233.893 236.35 235.201 236.03 236.072C235.711 236.942 235.616 238.44 236.622 239.032C239.482 240.725 243.892 240.263 246.686 238.949C247.733 238.472 248.62 237.704 249.244 236.738C249.867 235.771 250.2 234.646 250.203 233.496C250.203 232.816 250.061 232.141 250.031 231.46C250.054 229.89 250.46 228.349 251.215 226.973C251.645 226.176 251.99 225.337 252.245 224.468C252.624 222.888 251.878 221.295 251.257 219.874C250.724 218.649 250.102 217.009 249.682 217.199L249.848 218.276C249.41 218.939 248.072 219.738 246.42 220.052C245.366 220.265 242.542 220.579 242.424 219.774Z" fill="#455A64"/>
<path d="M206.288 209.722C205.915 209.722 205.536 210.012 204.873 210.983C203.962 212.314 202.785 213.443 201.416 214.298C198.959 216.026 195.07 217.773 191.074 219.271C188.895 220.082 188.481 221.639 189.197 223.065C190.328 224.19 194.17 226.825 200.481 224.901C204.394 223.717 205.773 221.704 208.573 221.349C210.551 221.094 213.984 221.639 216.003 220.005C216.642 218.477 216.127 216.938 215.926 214.819C215.725 212.699 215.044 209.307 214.375 209.443L214.257 210.562C213.718 213.019 208.07 213.256 206.472 211.652L206.288 209.722Z" fill="#455A64"/>
<path d="M221.538 59.4897C227.813 59.8805 236.001 59.8035 236.386 66.2326C236.978 76.0953 235.077 100.397 235.077 100.397L237.108 117.405C232.508 122.319 211.587 124.888 199.841 117.683C199.841 117.683 199.172 80.784 200.096 75.2014C201.754 65.1374 206.661 60.3481 210.326 60.064L221.538 59.4897Z" fill="#BA68C8"/>
<path d="M224.368 62.6454C225.812 61.189 226.262 59.7919 225.232 59.6854C223.971 59.5966 222.704 59.5433 221.515 59.4663L212.635 59.9222C212.635 59.9222 210.616 61.9586 211.214 63.6577C211.812 65.3567 213.759 66.2033 216.151 66.1085C219.216 65.9717 222.13 64.7434 224.368 62.6454Z" fill="#455A64"/>
<path opacity="0.3" d="M199.978 76.125C199.759 78.4575 199.652 83.0632 199.622 88.3972C211.066 92.2866 227.618 90.2028 235.853 88.7583C236.101 84.4308 236.338 80.9261 236.445 76.492C223.409 79.3277 208.568 78.274 199.978 76.125Z" fill="black"/>
<path d="M230.152 60.3364C234.183 60.3364 237.321 60.591 240.139 64.0542C242.11 66.4695 256.756 84.5019 258.491 87.5033C260.225 90.5047 260.344 91.6828 257.775 95.4479C255.643 98.5678 243.768 116.168 239.926 120.152C236.084 124.136 230.951 124.805 228.411 123.74C225.872 122.674 222.616 120.128 228.915 117.228C233.331 115.215 235.871 113.149 236.386 111.16L236.06 108.318H238.428L246.787 91.1678L232.159 75.4679C232.159 75.4679 227.15 66.7241 230.152 60.3364Z" fill="#FFBDA7"/>
<path d="M228.778 60.0818C228.778 60.0818 234.189 59.9871 236.226 60.7034C238.262 61.4197 239.944 63.0714 242.815 66.6234C245.686 70.1754 253.607 80.2867 253.607 80.2867C253.607 80.2867 252.719 87.0651 244.135 89.0069L231.602 76.6341C231.602 76.6341 226.487 71.4482 228.778 60.0818Z" fill="#455A64"/>
<path d="M216.979 44.3877C221.448 41.1158 222.418 34.8407 219.146 30.3719C215.874 25.903 209.599 24.9327 205.13 28.2046C200.662 31.4765 199.691 37.7516 202.963 42.2205C206.235 46.6893 212.51 47.6596 216.979 44.3877Z" fill="#263238"/>
<path d="M228.512 43.1626C228.512 43.1626 226.996 50.8231 226.363 52.0959C225.935 52.8776 225.22 53.4617 224.368 53.7239V48.3544L228.512 43.1626Z" fill="#263238"/>
<path d="M226.292 32.2637C226.859 32.1872 227.436 32.2413 227.979 32.4219C228.521 32.6025 229.016 32.9047 229.424 33.3056C230.785 34.6553 230.104 38.9473 228.5 43.1624L225.451 43.559L226.292 32.2637Z" fill="#263238"/>
<path d="M224.528 43.5769C225.149 43.938 226.008 42.7422 226.754 41.9371C227.5 41.1319 229.951 40.0131 231.223 42.5942C232.496 45.1753 230.229 48.751 228.293 49.3903C224.96 50.4974 224.421 48.3543 224.421 48.3543L224.368 60.7863C220.289 66.1972 208.716 65.9249 213.446 60.2713L213.398 56.5891C213.398 56.5891 210.367 57.0982 208.887 56.891C206.413 56.5476 204.832 54.6295 204.045 51.9715C202.778 47.7091 202.269 44.2755 203.151 35.8099C204.128 26.5569 214.866 26.2905 220.727 29.8543C226.588 33.4182 224.528 43.5769 224.528 43.5769Z" fill="#FFBDA7"/>
<path d="M224.546 44.6131C224.853 44.6131 225.996 42.6476 226.754 41.9372C227.796 40.9604 226.292 32.2639 226.292 32.2639C226.646 31.4907 226.758 30.6289 226.616 29.7907C226.473 28.9524 226.082 28.1764 225.493 27.5635C224.019 25.9887 221.941 24.0766 215.429 24.9527C210.746 25.5803 205.667 27.1254 201.511 25.1659C201.152 26.5101 201.201 27.9306 201.651 29.2471C202.101 30.5635 202.932 31.7166 204.039 32.5599C204.039 32.5599 205.548 33.4953 209.479 33.9156C213.41 34.3359 219.543 33.667 220.354 33.5367C221.491 33.3651 221.751 34.4662 222.414 37.4676C222.995 40.1316 223.51 44.6071 224.546 44.6131Z" fill="#263238"/>
<path d="M226.298 32.9386L229.974 30.8903C229.852 30.6424 229.682 30.4219 229.472 30.242C229.263 30.062 229.019 29.9265 228.755 29.8435C228.492 29.7605 228.214 29.7317 227.94 29.759C227.665 29.7863 227.398 29.8691 227.156 30.0023C226.663 30.2872 226.298 30.7514 226.138 31.2983C225.979 31.8452 226.036 32.4327 226.298 32.9386Z" fill="#263238"/>
<path d="M214.197 42.5767C214.214 42.7909 214.292 42.9958 214.423 43.1659C214.555 43.3361 214.733 43.4642 214.936 43.5344C215.139 43.6046 215.358 43.6138 215.566 43.561C215.775 43.5082 215.963 43.3955 216.108 43.237C216.253 43.0785 216.348 42.881 216.383 42.6689C216.417 42.4567 216.388 42.2392 216.3 42.0432C216.212 41.8471 216.069 41.6811 215.888 41.5655C215.707 41.4499 215.496 41.3898 215.281 41.3927C215.131 41.3964 214.983 41.4303 214.847 41.4923C214.711 41.5544 214.588 41.6434 214.487 41.754C214.386 41.8646 214.308 41.9944 214.258 42.1358C214.209 42.2772 214.188 42.4271 214.197 42.5767Z" fill="#263238"/>
<path d="M214.831 38.5688L217.199 39.8297C217.361 39.5027 217.39 39.1256 217.279 38.7778C217.169 38.43 216.928 38.1386 216.607 37.9649C216.451 37.8863 216.281 37.8396 216.107 37.8274C215.932 37.8153 215.758 37.838 215.592 37.8942C215.427 37.9504 215.274 38.039 215.144 38.1548C215.013 38.2707 214.907 38.4114 214.831 38.5688Z" fill="#263238"/>
<path d="M203.843 39.664L205.969 37.9709C205.866 37.827 205.735 37.7056 205.583 37.6142C205.432 37.5229 205.264 37.4634 205.088 37.4396C204.913 37.4157 204.735 37.428 204.564 37.4756C204.394 37.5232 204.235 37.6051 204.098 37.7164C203.813 37.9458 203.627 38.2763 203.58 38.6391C203.532 39.002 203.627 39.3691 203.843 39.664Z" fill="#263238"/>
<path d="M204.868 42.5767C204.884 42.7909 204.962 42.9958 205.093 43.1659C205.225 43.3361 205.403 43.4642 205.606 43.5344C205.809 43.6046 206.028 43.6138 206.236 43.561C206.445 43.5082 206.633 43.3955 206.778 43.237C206.923 43.0785 207.018 42.881 207.053 42.6689C207.087 42.4567 207.058 42.2392 206.97 42.0432C206.882 41.8471 206.739 41.6811 206.558 41.5655C206.377 41.4499 206.166 41.3898 205.951 41.3927C205.801 41.3972 205.654 41.4316 205.518 41.494C205.382 41.5563 205.26 41.6454 205.159 41.7557C205.058 41.8661 204.98 41.9957 204.93 42.1367C204.88 42.2777 204.859 42.4273 204.868 42.5767Z" fill="#263238"/>
<path d="M213.398 56.6189C213.398 56.6189 218.803 55.5593 220.704 54.5529C221.705 53.9733 222.466 53.0562 222.852 51.9658C222.75 53.0456 222.339 54.0732 221.668 54.9258C220.277 56.7018 213.428 58.2647 213.428 58.2647L213.398 56.6189Z" fill="#F0997A"/>
<path d="M214.559 50.0713L211.522 51.2138C211.587 51.4182 211.694 51.6071 211.834 51.7693C211.975 51.9314 212.147 52.0635 212.34 52.1575C212.533 52.2515 212.743 52.3055 212.957 52.3163C213.172 52.3271 213.386 52.2944 213.588 52.2202C213.996 52.0573 214.326 51.7424 214.507 51.3416C214.688 50.9409 214.706 50.4855 214.559 50.0713Z" fill="#F0997A"/>
<path d="M211.344 41.4575L210.983 48.011L207.561 46.8447L211.344 41.4575Z" fill="#F0997A"/>
<path d="M86.7813 60.7333L86.1478 60.7984C84.0662 61.0209 81.9611 60.8311 79.9528 60.2398C77.9446 59.6485 76.0725 58.6673 74.4435 57.3523C72.8146 56.0372 71.4607 54.4141 70.4592 52.5757C69.4578 50.7373 68.8283 48.7196 68.6069 46.6378C68.1842 42.5831 69.3873 38.5264 71.9522 35.3577C74.5171 32.1891 78.2342 30.1674 82.288 29.7362L84.064 29.5468C88.1095 29.1216 92.1588 30.3151 95.3269 32.8665C98.4951 35.4179 100.524 39.1196 100.972 43.1628C101.196 45.2487 101.007 47.3585 100.416 49.3713C99.8237 51.3841 98.8405 53.2604 97.5224 54.8926C96.2042 56.5248 94.5769 57.8808 92.7337 58.8831C90.8906 59.8854 88.8678 60.5141 86.7813 60.7333Z" fill="#263238"/>
<path d="M78.588 30.5885C82.7775 28.8904 87.0702 27.4589 91.4403 26.3024C93.1692 25.8025 94.978 25.6397 96.7683 25.8229C97.6597 25.9238 98.517 26.2242 99.2764 26.7018C100.036 27.1794 100.678 27.8219 101.155 28.5816C102.221 30.4997 101.747 33.0039 100.409 34.7562C101.584 35.1124 102.618 35.8267 103.366 36.7991C104.115 37.7716 104.542 38.9537 104.586 40.1802C104.63 41.4068 104.29 42.6166 103.614 43.6406C102.937 44.6646 101.957 45.4516 100.812 45.8917C99.2667 46.384 97.6257 46.4957 96.0283 46.2173C92.6582 45.8823 89.3924 44.8608 86.432 43.2159C83.4622 41.5548 81.1 38.9894 79.6891 35.8928" fill="#263238"/>
<path d="M94.6312 215.145C92.9558 213.238 92.6776 211.433 93.0032 207.982C93.3288 204.53 96.8512 174.492 97.7392 166.974C99.2547 154.34 99.7816 118.282 98.9587 109.467L65.12 111.243C62.5093 117.311 60.5083 124.811 60.5794 136.699C60.6326 145.739 59.7802 170.242 59.7802 170.242C59.7802 170.242 55.5651 173.734 52.4334 180.773C49.6688 186.989 46.105 208.597 46.105 208.597C45.8265 209.537 45.4782 210.456 45.063 211.344C44.3003 212.221 43.845 213.322 43.7666 214.482C43.6672 218.234 43.9669 221.987 44.6605 225.676C45.0216 227.589 46.176 228.838 48.0467 229.643C48.4626 229.824 48.9134 229.911 49.3669 229.897C49.6018 229.901 49.8304 229.821 50.0122 229.672C50.3437 229.359 50.0714 228.595 50.0122 228.21C49.9313 227.594 49.8917 226.973 49.8938 226.351C49.8938 225.132 49.9648 223.64 50.0773 222.426C50.3097 219.695 50.8215 216.996 51.6046 214.369L52.2973 212.824C52.2973 212.824 67.7307 183.65 72.0819 176.558C75.5392 170.987 78.3098 149.101 80.9619 137.166L84.1706 165.944C83.1045 168.899 82.2905 171.938 81.7374 175.031C80.9856 180.359 84.1942 201.28 85.1237 208.722C85.2984 210.099 85.2785 211.494 85.0645 212.866C85.3782 216.092 87.764 217.146 90.209 219.028C91.4285 219.964 96.792 223.421 100.066 224.173C102.73 224.765 103.778 223.776 104.174 223.03C100.712 220.762 97.5115 218.117 94.6312 215.145Z" fill="#FFA8A7"/>
<path d="M40.7355 215.518C40.4468 215.689 40.1978 215.919 40.0049 216.194C39.812 216.468 39.6797 216.781 39.6166 217.11C39.3858 218.247 39.6818 219.762 40.0606 221.254C40.4395 222.746 40.3862 225.925 40.2382 228.24C40.0826 230.436 40.712 232.615 42.0142 234.391C43.2338 235.977 45.3946 237.161 48.2006 237.262C51.0067 237.362 52.469 236.984 53.5286 236.427C54.5883 235.871 55.0442 233.029 53.2918 232.372C51.5395 231.715 45.5248 230.596 44.2283 225.025C43.4578 221.725 42.2848 218.532 40.7355 215.518Z" fill="#263238"/>
<path d="M45.063 211.344C45.2775 211.995 45.3816 212.677 45.3709 213.362C45.4753 213.93 45.5405 214.503 45.5662 215.079C45.5662 215.588 45.655 216.198 46.1227 216.393C46.314 216.45 46.5176 216.45 46.7089 216.393C46.9001 216.337 47.0708 216.226 47.2002 216.074C47.4502 215.763 47.6834 215.439 47.8987 215.103C48.1553 214.768 48.4831 214.495 48.8585 214.304C49.2338 214.112 49.6471 214.006 50.0684 213.994C50.4897 213.983 50.9084 214.065 51.2939 214.235C51.6795 214.405 52.0223 214.659 52.2973 214.979L52.0901 215.452C50.4466 219.49 50.0869 223.936 51.06 228.186C51.2336 229.012 51.6849 229.754 52.3387 230.288C52.8979 230.724 53.4243 231.201 53.9134 231.714C54.1581 231.974 54.3435 232.284 54.4569 232.622C54.5704 232.96 54.6091 233.319 54.5706 233.674C54.4541 234.205 54.1438 234.674 53.7003 234.988C53.2611 235.299 52.7728 235.533 52.2558 235.681C49.7713 236.501 47.0674 236.342 44.696 235.237C43.6954 234.708 42.8381 233.944 42.1978 233.011C40.8598 230.53 41.0789 228.204 41.1144 226.096C41.1973 221.443 40.5224 219.022 40.179 216.684C39.8002 213.83 44.1928 210.87 45.063 211.344Z" fill="#455A64"/>
<path d="M83.7266 219.673C83.5608 220.769 83.4483 221.254 84.7922 222.266C86.136 223.279 88.2139 223.995 89.8242 224.634C91.4344 225.274 93.7018 227.091 94.6786 228.003C95.6554 228.914 99.4501 230.554 102.54 230.454C105.631 230.353 107.424 229.654 108.17 228.991C108.916 228.328 109.692 225.99 107.714 225.345C105.737 224.699 83.7266 219.673 83.7266 219.673Z" fill="#263238"/>
<path d="M85.1296 211.936C85.0293 211.959 84.9367 212.007 84.8609 212.077C84.7852 212.146 84.7288 212.235 84.6974 212.332C84.4133 213.203 84.4014 214.203 84.1942 215.097C83.8805 216.5 83.5253 218.513 83.7266 219.65C83.9278 220.786 85.4256 221.923 88.2731 222.811C89.984 223.35 93.0091 224.918 94.4062 226.239C96.0934 227.855 99.7342 229.258 102.244 229.4C105.169 229.566 108.241 228.861 108.999 226.777C109.319 225.895 109.153 224.528 105.447 222.633C105.447 222.633 102.623 221.118 101.564 220.419C99.6978 219.234 97.9459 217.878 96.3302 216.37C95.7447 215.805 95.2062 215.193 94.72 214.541C94.4653 214.237 94.2375 213.913 94.0392 213.57C93.8195 212.94 93.6744 212.286 93.607 211.622C93.5807 211.411 93.5079 211.209 93.3939 211.03C93.2386 210.847 93.0327 210.713 92.8019 210.645C92.2452 210.437 91.6446 210.373 91.0564 210.459C90.4682 210.546 89.9116 210.78 89.4385 211.14C88.9655 211.5 88.5914 211.975 88.3514 212.519C88.1114 213.062 88.0131 213.658 88.0659 214.251C87.8646 214.351 87.616 214.162 87.5509 213.943C87.5182 213.717 87.5004 213.49 87.4976 213.262C87.4473 213.02 87.3345 212.795 87.1704 212.61C87.0063 212.425 86.7966 212.287 86.5622 212.208C86.1179 211.99 85.6229 211.896 85.1296 211.936Z" fill="#455A64"/>
<path d="M79.3635 146.224C79.7898 143.003 80.8376 138.622 80.8376 138.622L81.7256 146.105L83.6318 165.541C82.9726 167.351 82.4153 169.197 81.9624 171.07C80.9974 174.823 81.104 181.134 81.696 185.278C82.288 189.422 83.5549 196.846 83.5549 196.846C89.5933 200.202 94.3234 197.047 94.3234 197.047C94.3234 197.047 95.7264 188.688 97.1827 176.635C98.639 164.582 99.3139 152.629 99.6573 142.595C99.6573 142.595 101.214 117.63 97.4314 100.628C92.3698 103.996 77.5875 104.31 71.7563 99.4438C71.7563 99.4438 69.264 103.327 63.8235 112C59.5493 118.808 60.461 129.95 60.1472 139.232C59.6618 153.559 59.3184 169.738 59.3184 169.738C57.3715 171.797 55.6196 174.033 54.0851 176.416C51.3619 180.56 49.7754 189.866 49.7754 189.866C49.7754 189.866 52.2677 195.543 61.2661 196.023C61.2661 196.023 70.4302 180.323 72.7213 176.765C75.0123 173.207 78.9373 149.438 79.3635 146.224Z" fill="#37474F"/>
<path d="M80.8376 138.623L84.4547 126.06C84.4547 126.06 90.7654 125.551 95.7619 122.082C95.7619 122.082 94.6312 126.682 85.9288 127.813L81.8677 140.132V147.757L80.8376 138.623Z" fill="#263238"/>
<path d="M101.368 78.3153C98.2187 73.1531 91.7955 68.1448 89.7117 66.4043L77.333 66.1675C74.8998 66.2326 71.3301 66.4516 71.3301 66.4516C68.7194 67.76 68.7608 70.9627 68.595 73.9819C68.4056 77.2971 68.3523 78.7534 69.1219 84.2531L70.6019 91.2801L70.8269 92.3576C70.8683 92.5411 70.9038 92.7305 70.9453 92.9496C71.5136 95.6426 71.0933 98.4502 69.7613 100.859C66.8013 106.187 63.3262 110.195 62.2606 114.711C63.885 114.304 65.3786 113.489 66.6 112.343C68.4707 110.644 69.5955 109.863 71.111 107.838C71.111 107.838 71.1762 110.917 74.1243 115.031C74.8801 116.086 75.7519 117.053 76.7232 117.914C82.0867 122.65 98.5443 125.077 99.4619 110.698C99.4619 110.698 97.8813 101.569 97.6563 98.5084C98.1891 95.8859 99.6869 91.3571 99.7461 90.3448C103.6 87.0236 103.665 82.0745 101.368 78.3153Z" fill="#BA68C8"/>
<path d="M77.4454 68.672C78.6294 70.1046 81.5243 73.2955 84.2298 73.8461C87.4088 74.4914 90.6826 74.219 91.4936 72.2595C92.3046 70.3 90.7477 67.932 89.315 66.4106L77.333 66.1797H76.4627C76.4213 66.3987 76.1075 67.0085 77.4454 68.672Z" fill="#455A64"/>
<path opacity="0.3" d="M68.7667 81.5066C68.8614 82.2998 68.9739 83.2056 69.1219 84.2534L70.6019 91.2805L70.8269 92.3579C70.8683 92.5414 70.9038 92.7309 70.9453 92.9499C71.1149 93.8274 71.1903 94.7204 71.1702 95.6139C83.2826 99.6869 93.0742 97.5794 98.3608 95.6139C98.9528 93.3584 99.6928 91.02 99.7342 90.3274C101.057 89.2354 102.03 87.7798 102.534 86.1405C103.038 84.5013 103.05 82.7503 102.57 81.104C99.752 82.5544 95.5843 83.4246 91.2746 83.8272C83.6923 84.5435 76.0433 83.7549 68.7667 81.5066Z" fill="black"/>
<path opacity="0.1" d="M93.7787 89.6049C93.7787 89.6049 89.6347 93.0918 84.6678 91.5467C83.281 91.1619 82.0166 90.4266 80.9963 89.4116C79.9761 88.3965 79.2343 87.1358 78.8426 85.751C78.8426 85.751 78.5347 91.3572 84.7626 93.0326C90.7891 94.6428 93.7787 89.6049 93.7787 89.6049Z" fill="black"/>
<path d="M131.779 110.905C131.664 110.768 131.512 110.668 131.341 110.615C125.149 108.17 118.222 110.384 112.829 109.715L112.912 111.562C115.476 113.143 118.643 113.439 121.644 113.202C124.646 112.965 127.594 112.261 130.595 111.988C130.922 111.993 131.245 111.911 131.531 111.752C131.672 111.668 131.776 111.535 131.822 111.377C131.868 111.22 131.853 111.051 131.779 110.905Z" fill="#F28F8F"/>
<path d="M88.2968 112.219C86.7517 111.864 83.7976 110.615 82.7498 109.224C80.8672 106.72 65.1496 82.8561 64.1846 76.2968C63.4091 71.0161 65.8896 66.3512 71.3301 66.4518C74.8347 68.9974 78.2861 78.7121 78.2861 78.7121L90.7181 101.534C95.1048 103.582 110.455 108.638 113.161 109.467C115.866 110.295 121.384 109.691 125.066 110.864C128.748 112.036 138.054 115.902 136.178 117.648C134.739 118.974 133.188 120.288 130.601 120.478C127.422 120.703 127.049 119.448 123.858 119.371C120.667 119.294 118.009 120.253 114.647 118.944C112.521 118.116 112.427 117.63 109.467 116.914C106.507 116.198 90.2978 112.675 88.2968 112.219Z" fill="#FFA8A7"/>
<path d="M72.887 66.3572C70.1402 65.8836 66.375 66.2921 64.0662 69.8204C61.7574 73.3488 63.788 78.2446 65.2502 81.5184C66.7125 84.7921 71.5018 92.352 71.5018 92.352C71.5018 92.352 81.8795 91.6001 83.839 86.3964C83.839 86.3787 77.5106 72.8633 72.887 66.3572Z" fill="#455A64"/>
<path d="M95.5843 36.9526C97.3011 38.0715 99.2784 42.6003 98.6509 51.877C98.1181 59.7387 95.4837 61.568 94.1754 62.0712C92.867 62.5744 90.4162 62.1245 88.0304 61.6213L87.8173 66.3573C87.8173 66.3573 90.7773 68.8378 90.4635 70.9926C90.1498 73.1475 85.3072 73.7454 82.2939 71.4899C80.6098 70.281 79.1205 68.8216 77.8776 67.1624L78.4222 54.9198C78.4222 54.9198 76.7765 56.613 74.2013 54.7304C73.6765 54.3487 73.2398 53.8588 72.9206 53.2938C72.6014 52.7288 72.4072 52.1019 72.3511 51.4554C72.2949 50.8089 72.3782 50.1579 72.5953 49.5464C72.8123 48.9348 73.1581 48.377 73.6093 47.9106C75.2195 46.4128 78.1203 47.36 78.6413 49.5504C78.6413 49.5504 82.063 49.4912 87.1246 46.5904C92.6302 43.4765 94.0688 40.1968 95.5843 36.9526Z" fill="#FFA8A7"/>
<path d="M88.5395 49.2541C88.5326 49.4478 88.4689 49.6351 88.3563 49.7928C88.2438 49.9505 88.0874 50.0717 87.9066 50.1413C87.7258 50.2109 87.5285 50.2258 87.3393 50.1842C87.1501 50.1426 86.9772 50.0463 86.8423 49.9073C86.7073 49.7684 86.6161 49.5928 86.5801 49.4024C86.5441 49.212 86.5648 49.0153 86.6397 48.8366C86.7145 48.6579 86.8402 48.5051 87.0012 48.3973C87.1621 48.2894 87.3512 48.2313 87.545 48.23C87.6779 48.2307 87.8093 48.258 87.9315 48.3101C88.0538 48.3622 88.1645 48.4381 88.2571 48.5334C88.3497 48.6288 88.4223 48.7416 88.4708 48.8654C88.5193 48.9891 88.5427 49.1213 88.5395 49.2541Z" fill="#263238"/>
<path d="M89.392 56.1509L92.1981 57.181C92.1387 57.3693 92.042 57.5438 91.9136 57.6939C91.7853 57.844 91.6279 57.9666 91.4511 58.0545C91.2742 58.1424 91.0814 58.1937 90.8843 58.2053C90.6871 58.217 90.4896 58.1887 90.3037 58.1222C89.9267 57.9747 89.6214 57.6872 89.4515 57.3198C89.2816 56.9525 89.2603 56.5336 89.392 56.1509Z" fill="#F28F8F"/>
<path d="M97.3248 46.768L95.383 45.288C95.4742 45.1588 95.5903 45.0492 95.7245 44.9656C95.8588 44.882 96.0084 44.8261 96.1645 44.8013C96.3207 44.7765 96.4802 44.7832 96.6337 44.821C96.7873 44.8588 96.9317 44.9271 97.0584 45.0216C97.3177 45.2234 97.4899 45.5169 97.5394 45.8417C97.589 46.1666 97.5122 46.4981 97.3248 46.768Z" fill="#263238"/>
<path d="M96.7565 49.0944C96.7604 49.2268 96.738 49.3586 96.6906 49.4823C96.6432 49.6059 96.5718 49.719 96.4803 49.8148C96.3889 49.9106 96.2794 49.9873 96.1581 50.0405C96.0368 50.0937 95.9062 50.1222 95.7738 50.1245C95.5683 50.134 95.3647 50.0817 95.1892 49.9744C95.0137 49.8671 94.8743 49.7097 94.789 49.5225C94.7037 49.3353 94.6765 49.1269 94.7107 48.9241C94.7449 48.7212 94.8391 48.5333 94.9811 48.3845C95.1231 48.2356 95.3064 48.1327 95.5074 48.089C95.7084 48.0452 95.9179 48.0627 96.1089 48.1391C96.2999 48.2154 96.4636 48.3473 96.579 48.5175C96.6945 48.6878 96.7563 48.8887 96.7565 49.0944Z" fill="#263238"/>
<path d="M91.9494 48.313L91.837 54.2744L95.016 53.4456L91.9494 48.313Z" fill="#F28F8F"/>
<path d="M88.0304 61.6213C85.5144 61.1714 80.3699 59.4487 79.6536 57.353C79.9315 58.4081 80.5266 59.3525 81.3586 60.0585C82.8563 61.4615 87.9594 63.1961 87.9594 63.1961L88.0304 61.6213Z" fill="#F28F8F"/>
<path d="M122.58 61.8285C122.349 57.3826 123.61 56.0802 125.196 55.0146C126.783 53.949 132.649 52.4275 133.863 52.8538C135.077 53.28 141.435 56.4058 141.133 59.4901C140.831 62.5744 137.936 63.344 134.733 62.6099C131.531 61.8758 126.025 58.2528 124.847 58.7678C123.669 59.2829 122.58 61.8285 122.58 61.8285Z" fill="#FFA8A7"/>
<path d="M196.153 66.1322C197.296 65.6172 198.989 66.3631 201.594 65.8244C204.199 65.2857 205.939 64.2142 207.466 64.0898C208.994 63.9655 209.639 63.4978 208.088 62.6394C206.537 61.781 203.832 62.1422 203.293 61.935C204.119 61.4058 205.021 61.0065 205.969 60.751C208.191 60.3574 210.431 60.0788 212.682 59.9162C212.806 59.9162 213.629 58.5842 209.787 58.0514C205.945 57.5186 200.315 58.3415 198.208 59.4604C196.1 60.5793 196.153 66.1322 196.153 66.1322Z" fill="#B16668"/>
<path d="M45.3768 54.3871C45.3903 54.6179 45.3358 54.8476 45.2202 55.0479C45.1047 55.2481 44.933 55.4101 44.7264 55.5139C44.5198 55.6177 44.2873 55.6588 44.0576 55.632C43.828 55.6052 43.6112 55.5118 43.434 55.3632C43.2569 55.2146 43.1271 55.0175 43.0607 54.796C42.9943 54.5745 42.9942 54.3384 43.0604 54.1169C43.1266 53.8954 43.2562 53.6981 43.4333 53.5494C43.6103 53.4007 43.827 53.307 44.0566 53.2801C44.2169 53.2612 44.3793 53.2754 44.5339 53.3216C44.6884 53.3678 44.832 53.4451 44.9556 53.5487C45.0792 53.6524 45.1803 53.7803 45.2528 53.9244C45.3252 54.0686 45.3674 54.226 45.3768 54.3871Z" fill="#BA68C8"/>
<path d="M48.0586 44.6013L49.8938 46.105L52.167 45.442C52.2153 45.427 52.2668 45.426 52.3155 45.4392C52.3643 45.4524 52.4083 45.4791 52.4424 45.5164C52.4765 45.5536 52.4994 45.5998 52.5083 45.6495C52.5172 45.6992 52.5117 45.7504 52.4926 45.7972L51.6342 48.0053L52.9662 49.9648C52.9956 50.0061 53.0127 50.0548 53.0154 50.1053C53.0181 50.1559 53.0063 50.2062 52.9814 50.2503C52.9566 50.2944 52.9197 50.3305 52.8751 50.3544C52.8304 50.3783 52.7799 50.3889 52.7294 50.3852L50.3614 50.2549L48.911 52.1256C48.8798 52.1644 48.8385 52.1939 48.7917 52.2109C48.7449 52.2279 48.6943 52.2317 48.6455 52.2219C48.5967 52.2121 48.5515 52.1892 48.5148 52.1555C48.4781 52.1218 48.4513 52.0787 48.4374 52.0309L47.8336 49.728L45.584 48.9348C45.5373 48.9174 45.4963 48.8875 45.4654 48.8484C45.4345 48.8093 45.415 48.7624 45.4089 48.713C45.4028 48.6635 45.4103 48.6133 45.4308 48.5679C45.4512 48.5224 45.4837 48.4835 45.5248 48.4552L47.5198 47.1706L47.5968 44.8026C47.5924 44.7473 47.6054 44.6921 47.6339 44.6445C47.6624 44.597 47.7051 44.5595 47.7559 44.5373C47.8067 44.5152 47.8632 44.5094 47.9175 44.5209C47.9717 44.5324 48.0211 44.5605 48.0586 44.6013Z" fill="#BA68C8"/>
<path d="M259.456 55.2155C259.822 55.2448 260.164 55.4129 260.411 55.6854C260.658 55.9579 260.792 56.3144 260.785 56.6821C260.778 57.0498 260.631 57.4011 260.374 57.6643C260.118 57.9275 259.77 58.0828 259.403 58.0986C259.206 58.107 259.009 58.075 258.825 58.0046C258.641 57.9342 258.473 57.8269 258.332 57.6892C258.191 57.5515 258.079 57.3864 258.004 57.204C257.93 57.0216 257.893 56.8258 257.896 56.6287C257.9 56.4316 257.944 56.2373 258.026 56.0579C258.107 55.8784 258.225 55.7175 258.371 55.5851C258.517 55.4527 258.688 55.3516 258.875 55.2881C259.062 55.2245 259.259 55.1998 259.456 55.2155Z" fill="#BA68C8"/>
<path d="M243.934 48.7984L246.834 45.9568L246.142 41.9608C246.126 41.8757 246.135 41.7879 246.167 41.7076C246.199 41.6272 246.253 41.5574 246.323 41.5062C246.392 41.4549 246.475 41.4243 246.561 41.4179C246.648 41.4114 246.734 41.4293 246.811 41.4695L250.416 43.352L254.004 41.4576C254.08 41.4163 254.166 41.3973 254.253 41.4028C254.339 41.4083 254.423 41.4381 254.493 41.4888C254.564 41.5394 254.618 41.6089 254.651 41.6893C254.684 41.7696 254.693 41.8576 254.678 41.9431L253.968 45.945L256.928 48.7748C256.99 48.8348 257.033 48.9109 257.054 48.9944C257.075 49.0779 257.071 49.1656 257.045 49.2474C257.019 49.3293 256.97 49.4021 256.904 49.4577C256.838 49.5133 256.759 49.5495 256.673 49.5621L252.66 50.1541L250.884 53.7949C250.846 53.8724 250.787 53.9376 250.713 53.9832C250.64 54.0288 250.556 54.053 250.469 54.053C250.383 54.053 250.298 54.0288 250.225 53.9832C250.152 53.9376 250.093 53.8724 250.055 53.7949L248.279 50.1541L244.259 49.5621C244.173 49.5578 244.089 49.5292 244.018 49.4797C243.947 49.4301 243.892 49.3617 243.858 49.282C243.824 49.2024 243.813 49.1149 243.826 49.0294C243.84 48.9438 243.877 48.8638 243.934 48.7984Z" fill="#BA68C8"/>
<path d="M268.052 104.742L268.922 106.672L271.006 107.057C271.049 107.066 271.09 107.086 271.122 107.117C271.155 107.147 271.179 107.185 271.191 107.228C271.203 107.271 271.203 107.316 271.192 107.359C271.18 107.402 271.157 107.441 271.124 107.471L269.555 108.892L269.834 110.988C269.841 111.033 269.836 111.078 269.818 111.12C269.8 111.162 269.771 111.197 269.734 111.223C269.696 111.249 269.652 111.263 269.607 111.264C269.562 111.266 269.517 111.254 269.478 111.231L267.637 110.177L265.731 111.094C265.691 111.115 265.645 111.123 265.6 111.119C265.555 111.114 265.513 111.097 265.477 111.069C265.442 111.041 265.415 111.004 265.4 110.961C265.385 110.918 265.383 110.872 265.394 110.828L265.826 108.756L264.364 107.229C264.332 107.196 264.311 107.155 264.302 107.111C264.293 107.067 264.296 107.021 264.311 106.979C264.326 106.936 264.353 106.899 264.389 106.871C264.424 106.843 264.467 106.825 264.512 106.82L266.613 106.589L267.62 104.73C267.641 104.691 267.673 104.659 267.712 104.636C267.75 104.614 267.795 104.603 267.839 104.604C267.884 104.605 267.927 104.619 267.965 104.643C268.002 104.668 268.032 104.702 268.052 104.742Z" fill="#BA68C8"/>
<path d="M35.7686 90.2268L39.072 92.5475L42.8726 91.1208C42.9553 91.0906 43.0448 91.0847 43.1306 91.1037C43.2165 91.1227 43.2951 91.1659 43.3573 91.2281C43.4195 91.2903 43.4627 91.3689 43.4817 91.4548C43.5007 91.5406 43.4948 91.6301 43.4646 91.7128L42.2806 95.6022L44.8144 98.7753C44.8686 98.8425 44.903 98.9235 44.9135 99.0092C44.9241 99.0948 44.9104 99.1818 44.874 99.26C44.8376 99.3383 44.78 99.4049 44.7078 99.4521C44.6355 99.4993 44.5514 99.5253 44.4651 99.5272L40.404 99.6041L38.1662 102.996C38.1186 103.068 38.0517 103.126 37.9731 103.162C37.8944 103.198 37.8073 103.211 37.7215 103.2C37.6358 103.189 37.5549 103.154 37.488 103.099C37.4212 103.044 37.371 102.972 37.3434 102.89L36.0173 99.0536L32.0982 97.9761C32.0145 97.9534 31.9388 97.9076 31.8799 97.8439C31.821 97.7802 31.7812 97.7012 31.7651 97.6159C31.7491 97.5306 31.7574 97.4425 31.789 97.3618C31.8207 97.281 31.8746 97.2108 31.9443 97.1592L35.1826 94.7083L34.999 90.6531C34.9799 90.5571 34.9918 90.4574 35.033 90.3686C35.0742 90.2798 35.1425 90.2063 35.2282 90.1589C35.3138 90.1115 35.4123 90.0925 35.5095 90.1047C35.6066 90.1169 35.6974 90.1597 35.7686 90.2268Z" fill="#BA68C8"/>
<path d="M262.493 112.569C262.529 112.79 262.475 113.017 262.344 113.199C262.213 113.381 262.016 113.503 261.794 113.54C261.572 113.574 261.346 113.519 261.164 113.387C260.982 113.255 260.86 113.057 260.823 112.835C260.789 112.614 260.844 112.388 260.976 112.207C261.108 112.026 261.307 111.905 261.528 111.87C261.637 111.852 261.749 111.855 261.857 111.88C261.965 111.905 262.067 111.952 262.157 112.017C262.247 112.082 262.323 112.164 262.38 112.259C262.438 112.354 262.476 112.459 262.493 112.569Z" fill="#BA68C8"/>
<path d="M47.952 94.0451C47.983 94.233 47.9577 94.4259 47.8794 94.5994C47.801 94.773 47.673 94.9195 47.5115 95.0204C47.3501 95.1214 47.1623 95.1723 46.972 95.1668C46.7816 95.1613 46.5972 95.0996 46.4418 94.9895C46.2865 94.8793 46.1672 94.7257 46.099 94.5479C46.0308 94.3701 46.0167 94.1761 46.0585 93.9903C46.1004 93.8045 46.1962 93.6352 46.3341 93.5038C46.4719 93.3724 46.6456 93.2848 46.8331 93.2518C46.9587 93.2298 47.0875 93.2329 47.2119 93.2609C47.3363 93.2889 47.454 93.3413 47.558 93.4151C47.6621 93.4889 47.7505 93.5825 47.8181 93.6907C47.8857 93.7988 47.9312 93.9193 47.952 94.0451Z" fill="#BA68C8"/>
</svg>
