<svg width="16" height="16" viewBox="0 0 16 16" fill="none" xmlns="http://www.w3.org/2000/svg">
<path d="M11.0306 5.96938C11.1005 6.03905 11.156 6.12185 11.1939 6.21301C11.2317 6.30417 11.2512 6.40191 11.2512 6.50063C11.2512 6.59934 11.2317 6.69708 11.1939 6.78824C11.156 6.8794 11.1005 6.9622 11.0306 7.03188L7.53063 10.5319C7.46095 10.6018 7.37816 10.6573 7.28699 10.6951C7.19583 10.733 7.09809 10.7525 6.99938 10.7525C6.90067 10.7525 6.80293 10.733 6.71176 10.6951C6.6206 10.6573 6.53781 10.6018 6.46813 10.5319L4.96813 9.03187C4.89836 8.96211 4.84302 8.87929 4.80527 8.78814C4.76751 8.69698 4.74808 8.59929 4.74808 8.50062C4.74808 8.40196 4.76751 8.30427 4.80527 8.21311C4.84302 8.12196 4.89836 8.03914 4.96813 7.96938C5.03789 7.89961 5.12072 7.84427 5.21187 7.80651C5.30302 7.76876 5.40072 7.74932 5.49938 7.74932C5.59804 7.74932 5.69574 7.76876 5.78689 7.80651C5.87804 7.84427 5.96086 7.89961 6.03063 7.96938L7 8.9375L9.96938 5.9675C10.0392 5.89789 10.122 5.84272 10.2131 5.80513C10.3042 5.76755 10.4018 5.7483 10.5004 5.74847C10.599 5.74865 10.6965 5.76825 10.7875 5.80615C10.8785 5.84405 10.9611 5.89952 11.0306 5.96938ZM14.75 8C14.75 9.33502 14.3541 10.6401 13.6124 11.7501C12.8707 12.8601 11.8165 13.7253 10.5831 14.2362C9.34971 14.7471 7.99252 14.8808 6.68314 14.6203C5.37377 14.3598 4.17104 13.717 3.22703 12.773C2.28303 11.829 1.64015 10.6262 1.3797 9.31686C1.11925 8.00749 1.25292 6.65029 1.76382 5.41689C2.27471 4.18349 3.13987 3.12928 4.2499 2.38758C5.35994 1.64588 6.66498 1.25 8 1.25C9.78961 1.25199 11.5053 1.96378 12.7708 3.22922C14.0362 4.49466 14.748 6.2104 14.75 8ZM13.25 8C13.25 6.96165 12.9421 5.94661 12.3652 5.08326C11.7883 4.2199 10.9684 3.54699 10.0091 3.14963C9.04978 2.75227 7.99418 2.6483 6.97578 2.85088C5.95738 3.05345 5.02192 3.55346 4.28769 4.28769C3.55347 5.02191 3.05345 5.95738 2.85088 6.97578C2.64831 7.99418 2.75228 9.04978 3.14964 10.0091C3.547 10.9684 4.2199 11.7883 5.08326 12.3652C5.94662 12.9421 6.96165 13.25 8 13.25C9.39193 13.2485 10.7264 12.6949 11.7107 11.7107C12.6949 10.7264 13.2485 9.39193 13.25 8Z" fill="#12B76A"/>
</svg>
