<svg width="20" height="20" viewBox="0 0 20 20" fill="none" xmlns="http://www.w3.org/2000/svg">
<path d="M10 1.5625C8.33122 1.5625 6.69992 2.05735 5.31238 2.98448C3.92484 3.9116 2.84338 5.22936 2.20477 6.77111C1.56616 8.31286 1.39907 10.0094 1.72463 11.6461C2.05019 13.2828 2.85379 14.7862 4.03379 15.9662C5.2138 17.1462 6.71721 17.9498 8.35393 18.2754C9.99064 18.6009 11.6871 18.4338 13.2289 17.7952C14.7706 17.1566 16.0884 16.0752 17.0155 14.6876C17.9427 13.3001 18.4375 11.6688 18.4375 10C18.435 7.763 17.5453 5.61833 15.9635 4.03653C14.3817 2.45473 12.237 1.56498 10 1.5625ZM10 16.5625C8.70206 16.5625 7.43327 16.1776 6.35407 15.4565C5.27488 14.7354 4.43374 13.7105 3.93704 12.5114C3.44034 11.3122 3.31038 9.99272 3.5636 8.71972C3.81682 7.44672 4.44183 6.27739 5.35962 5.35961C6.2774 4.44183 7.44672 3.81681 8.71972 3.5636C9.99272 3.31038 11.3122 3.44034 12.5114 3.93704C13.7105 4.43374 14.7354 5.27487 15.4565 6.35407C16.1776 7.43327 16.5625 8.70206 16.5625 10C16.5606 11.7399 15.8686 13.408 14.6383 14.6383C13.408 15.8686 11.7399 16.5606 10 16.5625ZM9.0625 10.3125V6.25C9.0625 6.00136 9.16128 5.7629 9.33709 5.58709C9.51291 5.41127 9.75136 5.3125 10 5.3125C10.2486 5.3125 10.4871 5.41127 10.6629 5.58709C10.8387 5.7629 10.9375 6.00136 10.9375 6.25V10.3125C10.9375 10.5611 10.8387 10.7996 10.6629 10.9754C10.4871 11.1512 10.2486 11.25 10 11.25C9.75136 11.25 9.51291 11.1512 9.33709 10.9754C9.16128 10.7996 9.0625 10.5611 9.0625 10.3125ZM11.25 13.4375C11.25 13.6847 11.1767 13.9264 11.0393 14.132C10.902 14.3375 10.7068 14.4977 10.4784 14.5923C10.25 14.687 9.99862 14.7117 9.75614 14.6635C9.51366 14.6153 9.29094 14.4962 9.11612 14.3214C8.9413 14.1466 8.82225 13.9238 8.77402 13.6814C8.72579 13.4389 8.75054 13.1876 8.84515 12.9591C8.93976 12.7307 9.09998 12.5355 9.30554 12.3982C9.5111 12.2608 9.75278 12.1875 10 12.1875C10.3315 12.1875 10.6495 12.3192 10.8839 12.5536C11.1183 12.788 11.25 13.106 11.25 13.4375Z" fill="#F04438"/>
</svg>
